<svg width="289" height="40" viewBox="0 0 289 40" fill="none" xmlns="http://www.w3.org/2000/svg">
<path d="M14.543 19.0581C16.6957 19.006 16.7078 15.2639 15.6035 13.1943C14.4871 11.1214 12.9343 9.75781 11.4052 9.28705C9.87603 8.81628 8.95908 9.41878 8.17519 10.2199C7.59188 10.8161 7.27085 11.5322 7.5231 12.6486C7.65113 13.2362 7.91697 13.958 8.40615 14.8052C8.82481 15.5304 9.33714 16.1913 9.90728 16.7781C11.2861 18.1906 13.0199 19.1029 14.543 19.0581Z" fill="#57A770"/>
<path d="M21.6202 15.6539C23.218 15.2505 23.5692 12.7577 23.3748 10.5394C23.2804 9.50483 23.0729 8.53565 22.8096 7.85311C22.3529 6.66139 21.04 4.63759 19.6457 4.34725C18.2569 4.05805 16.8213 5.21706 16.1422 6.45441C15.423 7.76496 15.51 8.85142 16.4756 11.2556C17.4488 13.6554 19.283 16.24 21.6202 15.6539Z" fill="#57A770"/>
<path d="M26.7772 11.6588C26.7772 11.6588 26.0662 13.2498 25.9692 15.0156C25.9251 15.8452 26.0093 16.7227 26.372 17.4903C27.0886 19.0103 27.9835 20.0203 29.01 20.2825C29.6032 20.4388 30.2308 20.341 30.9022 19.9534C32.7278 18.8994 33.5089 14.8863 32.0767 12.4055C30.6413 9.93671 28.2193 8.79065 26.7772 11.6588Z" fill="#57A770"/>
<path d="M14.8929 25.4308C14.8522 24.6808 14.4203 23.8107 13.5341 22.6939C13.3465 22.4562 13.1452 22.2467 12.9362 22.0417C11.0818 20.2932 8.19945 19.6518 6.79917 20.439C4.88461 21.5154 5.96625 25.1091 7.82239 26.5819C9.67854 28.0546 12.1186 28.9358 13.6912 27.6003C14.5115 26.913 14.9375 26.2396 14.8929 25.4308Z" fill="#57A770"/>
<path d="M30.4835 22.8516C27.7598 20.9739 24.2417 19.7585 22.8095 19.4557C21.0918 19.0938 18.7349 20.6515 17.6102 22.2775C16.4994 23.8834 17.1503 24.8806 16.5984 28.3848C16.3911 29.7156 16.3064 31.0673 16.4707 32.2751C16.9962 36.0427 17.6562 36.366 19.3563 36.631C20.6349 36.8303 22.6122 34.3614 22.8378 34.1599C24.4431 32.7242 25.0476 30.4579 28.7659 29.9294C30.8826 29.6233 33.0998 28.6617 33.6216 27.3529C34.0121 26.3743 33.1854 25.1795 32.0099 24.0669C31.5518 23.6393 31.0365 23.2346 30.4835 22.8516Z" fill="#57A770"/>
<path d="M282.95 26.984C282.102 26.984 281.342 26.888 280.67 26.696C280.014 26.488 279.446 26.208 278.966 25.856C278.502 25.488 278.134 25.056 277.862 24.56C277.606 24.048 277.47 23.48 277.454 22.856H280.406C280.454 23.32 280.59 23.696 280.814 23.984C281.038 24.272 281.334 24.488 281.702 24.632C282.086 24.76 282.526 24.824 283.022 24.824C283.79 24.824 284.366 24.688 284.75 24.416C285.15 24.128 285.35 23.736 285.35 23.24C285.35 22.84 285.254 22.536 285.062 22.328C284.886 22.104 284.598 21.936 284.198 21.824C283.814 21.696 283.294 21.584 282.638 21.488C281.55 21.328 280.646 21.112 279.926 20.84C279.206 20.552 278.67 20.16 278.318 19.664C277.966 19.168 277.79 18.512 277.79 17.696C277.79 16.896 278.006 16.2 278.438 15.608C278.886 15.016 279.502 14.56 280.286 14.24C281.07 13.904 281.982 13.736 283.022 13.736C284.046 13.736 284.934 13.896 285.686 14.216C286.438 14.536 287.022 14.992 287.438 15.584C287.87 16.176 288.102 16.864 288.134 17.648H285.182C285.182 17.232 285.078 16.896 284.87 16.64C284.678 16.384 284.414 16.192 284.078 16.064C283.758 15.936 283.382 15.872 282.95 15.872C282.278 15.872 281.75 16.016 281.366 16.304C280.982 16.576 280.79 16.952 280.79 17.432C280.79 17.784 280.886 18.072 281.078 18.296C281.286 18.504 281.614 18.672 282.062 18.8C282.51 18.928 283.086 19.04 283.79 19.136C284.814 19.28 285.662 19.488 286.334 19.76C287.022 20.032 287.534 20.424 287.87 20.936C288.222 21.448 288.398 22.128 288.398 22.976C288.398 23.824 288.166 24.552 287.702 25.16C287.254 25.752 286.622 26.208 285.806 26.528C284.99 26.832 284.038 26.984 282.95 26.984Z" fill="#292A2B"/>
<path d="M269.98 26.96C268.684 26.96 267.58 26.696 266.668 26.168C265.772 25.624 265.084 24.864 264.604 23.888C264.124 22.896 263.884 21.744 263.884 20.432C263.884 19.072 264.124 17.896 264.604 16.904C265.084 15.896 265.772 15.12 266.668 14.576C267.564 14.032 268.628 13.76 269.86 13.76C271.268 13.76 272.42 14.072 273.316 14.696C274.228 15.304 274.884 16.152 275.284 17.24C275.684 18.328 275.82 19.576 275.692 20.984H266.812C266.812 21.8 266.94 22.488 267.196 23.048C267.468 23.592 267.836 24.008 268.3 24.296C268.78 24.568 269.34 24.704 269.98 24.704C270.732 24.704 271.34 24.544 271.804 24.224C272.284 23.904 272.604 23.48 272.764 22.952H275.596C275.468 23.784 275.148 24.504 274.636 25.112C274.124 25.704 273.468 26.16 272.668 26.48C271.868 26.8 270.972 26.96 269.98 26.96ZM266.812 19.376L266.548 19.064H273.052L272.764 19.4C272.796 18.616 272.692 17.976 272.452 17.48C272.212 16.984 271.868 16.616 271.42 16.376C270.972 16.136 270.452 16.016 269.86 16.016C269.252 16.016 268.724 16.144 268.276 16.4C267.828 16.656 267.476 17.04 267.22 17.552C266.964 18.048 266.828 18.656 266.812 19.376Z" fill="#292A2B"/>
<path d="M256.582 26.984C255.734 26.984 254.974 26.888 254.302 26.696C253.646 26.488 253.078 26.208 252.598 25.856C252.134 25.488 251.766 25.056 251.494 24.56C251.238 24.048 251.102 23.48 251.086 22.856H254.038C254.086 23.32 254.222 23.696 254.446 23.984C254.67 24.272 254.966 24.488 255.334 24.632C255.718 24.76 256.158 24.824 256.654 24.824C257.422 24.824 257.998 24.688 258.382 24.416C258.782 24.128 258.982 23.736 258.982 23.24C258.982 22.84 258.886 22.536 258.694 22.328C258.518 22.104 258.23 21.936 257.83 21.824C257.446 21.696 256.926 21.584 256.27 21.488C255.182 21.328 254.278 21.112 253.558 20.84C252.838 20.552 252.302 20.16 251.95 19.664C251.598 19.168 251.422 18.512 251.422 17.696C251.422 16.896 251.638 16.2 252.07 15.608C252.518 15.016 253.134 14.56 253.918 14.24C254.702 13.904 255.614 13.736 256.654 13.736C257.678 13.736 258.566 13.896 259.318 14.216C260.07 14.536 260.654 14.992 261.07 15.584C261.502 16.176 261.734 16.864 261.766 17.648H258.814C258.814 17.232 258.71 16.896 258.502 16.64C258.31 16.384 258.046 16.192 257.71 16.064C257.39 15.936 257.014 15.872 256.582 15.872C255.91 15.872 255.382 16.016 254.998 16.304C254.614 16.576 254.422 16.952 254.422 17.432C254.422 17.784 254.518 18.072 254.71 18.296C254.918 18.504 255.246 18.672 255.694 18.8C256.142 18.928 256.718 19.04 257.422 19.136C258.446 19.28 259.294 19.488 259.966 19.76C260.654 20.032 261.166 20.424 261.502 20.936C261.854 21.448 262.03 22.128 262.03 22.976C262.03 23.824 261.798 24.552 261.334 25.16C260.886 25.752 260.254 26.208 259.438 26.528C258.622 26.832 257.67 26.984 256.582 26.984Z" fill="#292A2B"/>
<path d="M241.388 26.96C240.428 26.96 239.604 26.768 238.916 26.384C238.228 26 237.7 25.432 237.332 24.68C236.98 23.912 236.804 22.984 236.804 21.896V13.976H239.804V21.104C239.804 21.824 239.9 22.44 240.092 22.952C240.284 23.448 240.58 23.832 240.98 24.104C241.38 24.376 241.9 24.512 242.54 24.512C243.18 24.512 243.732 24.352 244.196 24.032C244.676 23.712 245.044 23.288 245.3 22.76C245.556 22.216 245.684 21.608 245.684 20.936V13.976H248.684V26.744H245.804L245.684 24.272H245.54C245.22 25.136 244.684 25.8 243.932 26.264C243.196 26.728 242.348 26.96 241.388 26.96Z" fill="#292A2B"/>
<path d="M228.87 26.96C227.574 26.96 226.47 26.696 225.558 26.168C224.662 25.624 223.974 24.864 223.494 23.888C223.014 22.896 222.774 21.744 222.774 20.432C222.774 19.072 223.014 17.896 223.494 16.904C223.974 15.896 224.662 15.12 225.558 14.576C226.454 14.032 227.518 13.76 228.75 13.76C230.158 13.76 231.31 14.072 232.206 14.696C233.118 15.304 233.774 16.152 234.174 17.24C234.574 18.328 234.71 19.576 234.582 20.984H225.702C225.702 21.8 225.83 22.488 226.086 23.048C226.358 23.592 226.726 24.008 227.19 24.296C227.67 24.568 228.23 24.704 228.87 24.704C229.622 24.704 230.23 24.544 230.694 24.224C231.174 23.904 231.494 23.48 231.654 22.952H234.486C234.358 23.784 234.038 24.504 233.526 25.112C233.014 25.704 232.358 26.16 231.558 26.48C230.758 26.8 229.862 26.96 228.87 26.96ZM225.702 19.376L225.438 19.064H231.942L231.654 19.4C231.686 18.616 231.582 17.976 231.342 17.48C231.102 16.984 230.758 16.616 230.31 16.376C229.862 16.136 229.342 16.016 228.75 16.016C228.142 16.016 227.614 16.144 227.166 16.4C226.718 16.656 226.366 17.04 226.11 17.552C225.854 18.048 225.718 18.656 225.702 19.376Z" fill="#292A2B"/>
<path d="M214.566 26.744V13.976H217.278L217.422 16.112H217.518C217.806 15.296 218.27 14.712 218.91 14.36C219.566 13.992 220.31 13.808 221.142 13.808C221.286 13.808 221.414 13.808 221.526 13.808C221.654 13.808 221.774 13.808 221.886 13.808V16.64C221.79 16.64 221.67 16.64 221.526 16.64C221.398 16.624 221.254 16.616 221.094 16.616C220.326 16.616 219.686 16.744 219.174 17C218.662 17.24 218.27 17.592 217.998 18.056C217.742 18.52 217.598 19.088 217.566 19.76V26.744H214.566Z" fill="#292A2B"/>
<path d="M204.052 26.96C203.092 26.96 202.268 26.768 201.58 26.384C200.892 26 200.364 25.432 199.996 24.68C199.644 23.912 199.468 22.984 199.468 21.896V13.976H202.468V21.104C202.468 21.824 202.564 22.44 202.756 22.952C202.948 23.448 203.244 23.832 203.644 24.104C204.044 24.376 204.564 24.512 205.204 24.512C205.844 24.512 206.396 24.352 206.86 24.032C207.34 23.712 207.708 23.288 207.964 22.76C208.22 22.216 208.348 21.608 208.348 20.936V13.976H211.348V26.744H208.468L208.348 24.272H208.204C207.884 25.136 207.348 25.8 206.596 26.264C205.86 26.728 205.012 26.96 204.052 26.96Z" fill="#292A2B"/>
<path d="M191.534 26.96C190.238 26.96 189.134 26.696 188.222 26.168C187.326 25.624 186.638 24.864 186.158 23.888C185.678 22.896 185.438 21.744 185.438 20.432C185.438 19.072 185.678 17.896 186.158 16.904C186.638 15.896 187.326 15.12 188.222 14.576C189.118 14.032 190.182 13.76 191.414 13.76C192.822 13.76 193.974 14.072 194.87 14.696C195.782 15.304 196.438 16.152 196.838 17.24C197.238 18.328 197.374 19.576 197.246 20.984H188.366C188.366 21.8 188.494 22.488 188.75 23.048C189.022 23.592 189.39 24.008 189.854 24.296C190.334 24.568 190.894 24.704 191.534 24.704C192.286 24.704 192.894 24.544 193.358 24.224C193.838 23.904 194.158 23.48 194.318 22.952H197.15C197.022 23.784 196.702 24.504 196.19 25.112C195.678 25.704 195.022 26.16 194.222 26.48C193.422 26.8 192.526 26.96 191.534 26.96ZM188.366 19.376L188.102 19.064H194.606L194.318 19.4C194.35 18.616 194.246 17.976 194.006 17.48C193.766 16.984 193.422 16.616 192.974 16.376C192.526 16.136 192.006 16.016 191.414 16.016C190.806 16.016 190.278 16.144 189.83 16.4C189.382 16.656 189.03 17.04 188.774 17.552C188.518 18.048 188.382 18.656 188.366 19.376Z" fill="#292A2B"/>
<path d="M171.16 26.744V9.24799H174.16V16.4H174.304C174.672 15.504 175.232 14.84 175.984 14.408C176.736 13.96 177.576 13.736 178.504 13.736C179.144 13.736 179.736 13.84 180.28 14.048C180.84 14.24 181.32 14.552 181.72 14.984C182.136 15.4 182.456 15.952 182.68 16.64C182.92 17.312 183.04 18.128 183.04 19.088V26.744H180.04V19.736C180.04 18.936 179.944 18.28 179.752 17.768C179.56 17.24 179.264 16.848 178.864 16.592C178.48 16.336 177.976 16.208 177.352 16.208C176.68 16.208 176.104 16.368 175.624 16.688C175.16 17.008 174.8 17.432 174.544 17.96C174.288 18.488 174.16 19.072 174.16 19.712V26.744H171.16Z" fill="#292A2B"/>
<path d="M158.004 26.984C157.156 26.984 156.396 26.888 155.724 26.696C155.068 26.488 154.5 26.208 154.02 25.856C153.556 25.488 153.188 25.056 152.916 24.56C152.66 24.048 152.524 23.48 152.508 22.856H155.46C155.508 23.32 155.644 23.696 155.868 23.984C156.092 24.272 156.388 24.488 156.756 24.632C157.14 24.76 157.58 24.824 158.076 24.824C158.844 24.824 159.42 24.688 159.804 24.416C160.204 24.128 160.404 23.736 160.404 23.24C160.404 22.84 160.308 22.536 160.116 22.328C159.94 22.104 159.652 21.936 159.252 21.824C158.868 21.696 158.348 21.584 157.692 21.488C156.604 21.328 155.7 21.112 154.98 20.84C154.26 20.552 153.724 20.16 153.372 19.664C153.02 19.168 152.844 18.512 152.844 17.696C152.844 16.896 153.06 16.2 153.492 15.608C153.94 15.016 154.556 14.56 155.34 14.24C156.124 13.904 157.036 13.736 158.076 13.736C159.1 13.736 159.988 13.896 160.74 14.216C161.492 14.536 162.076 14.992 162.492 15.584C162.924 16.176 163.156 16.864 163.188 17.648H160.236C160.236 17.232 160.132 16.896 159.924 16.64C159.732 16.384 159.468 16.192 159.132 16.064C158.812 15.936 158.436 15.872 158.004 15.872C157.332 15.872 156.804 16.016 156.42 16.304C156.036 16.576 155.844 16.952 155.844 17.432C155.844 17.784 155.94 18.072 156.132 18.296C156.34 18.504 156.668 18.672 157.116 18.8C157.564 18.928 158.14 19.04 158.844 19.136C159.868 19.28 160.716 19.488 161.388 19.76C162.076 20.032 162.588 20.424 162.924 20.936C163.276 21.448 163.452 22.128 163.452 22.976C163.452 23.824 163.22 24.552 162.756 25.16C162.308 25.752 161.676 26.208 160.86 26.528C160.044 26.832 159.092 26.984 158.004 26.984Z" fill="#292A2B"/>
<path d="M145.034 26.96C143.738 26.96 142.634 26.696 141.722 26.168C140.826 25.624 140.138 24.864 139.658 23.888C139.178 22.896 138.938 21.744 138.938 20.432C138.938 19.072 139.178 17.896 139.658 16.904C140.138 15.896 140.826 15.12 141.722 14.576C142.618 14.032 143.682 13.76 144.914 13.76C146.322 13.76 147.474 14.072 148.37 14.696C149.282 15.304 149.938 16.152 150.338 17.24C150.738 18.328 150.874 19.576 150.746 20.984H141.866C141.866 21.8 141.994 22.488 142.25 23.048C142.522 23.592 142.89 24.008 143.354 24.296C143.834 24.568 144.394 24.704 145.034 24.704C145.786 24.704 146.394 24.544 146.858 24.224C147.338 23.904 147.658 23.48 147.818 22.952H150.65C150.522 23.784 150.202 24.504 149.69 25.112C149.178 25.704 148.522 26.16 147.722 26.48C146.922 26.8 146.026 26.96 145.034 26.96ZM141.866 19.376L141.602 19.064H148.106L147.818 19.4C147.85 18.616 147.746 17.976 147.506 17.48C147.266 16.984 146.922 16.616 146.474 16.376C146.026 16.136 145.506 16.016 144.914 16.016C144.306 16.016 143.778 16.144 143.33 16.4C142.882 16.656 142.53 17.04 142.274 17.552C142.018 18.048 141.882 18.656 141.866 19.376Z" fill="#292A2B"/>
<path d="M127.104 26.744C126.08 26.744 125.312 26.504 124.8 26.024C124.304 25.528 124.056 24.744 124.056 23.672V16.4H121.704V13.976H124.056V10.376L127.056 10.064V13.976H131.784V10.376L134.784 10.064V13.976H137.472V16.4H134.784V23.12C134.784 23.552 134.88 23.856 135.072 24.032C135.28 24.192 135.576 24.272 135.96 24.272H137.496V26.744H134.832C133.808 26.744 133.04 26.504 132.528 26.024C132.032 25.528 131.784 24.744 131.784 23.672V16.4H127.056V23.12C127.056 23.552 127.152 23.856 127.344 24.032C127.552 24.192 127.848 24.272 128.232 24.272H129.768V26.744H127.104Z" fill="#292A2B"/>
<path d="M112.393 26.96C111.609 26.96 110.897 26.816 110.257 26.528C109.617 26.224 109.065 25.792 108.601 25.232C108.137 24.656 107.777 23.96 107.521 23.144C107.281 22.312 107.161 21.384 107.161 20.36C107.161 18.968 107.377 17.776 107.809 16.784C108.257 15.792 108.873 15.04 109.657 14.528C110.441 14 111.353 13.736 112.393 13.736C113.065 13.736 113.673 13.84 114.217 14.048C114.777 14.256 115.249 14.552 115.633 14.936C116.033 15.32 116.329 15.768 116.521 16.28H116.689L116.809 13.976H119.641V26.744H116.809L116.689 24.416H116.521C116.249 25.184 115.745 25.8 115.009 26.264C114.273 26.728 113.401 26.96 112.393 26.96ZM113.449 24.512C114.153 24.512 114.737 24.36 115.201 24.056C115.681 23.736 116.041 23.312 116.281 22.784C116.521 22.256 116.641 21.672 116.641 21.032V19.664C116.641 19.008 116.513 18.416 116.257 17.888C116.017 17.36 115.657 16.944 115.177 16.64C114.713 16.336 114.161 16.184 113.521 16.184C112.801 16.184 112.193 16.352 111.697 16.688C111.217 17.008 110.849 17.48 110.593 18.104C110.337 18.728 110.209 19.48 110.209 20.36C110.209 21.208 110.329 21.944 110.569 22.568C110.825 23.192 111.193 23.672 111.673 24.008C112.153 24.344 112.745 24.512 113.449 24.512Z" fill="#292A2B"/>
<path d="M92.3867 30.752V13.976H95.2427L95.3627 16.304H95.5307C95.8027 15.536 96.3067 14.92 97.0427 14.456C97.7787 13.976 98.6507 13.736 99.6587 13.736C100.443 13.736 101.155 13.888 101.795 14.192C102.435 14.496 102.987 14.936 103.451 15.512C103.915 16.072 104.267 16.76 104.507 17.576C104.763 18.392 104.891 19.32 104.891 20.36C104.891 21.736 104.667 22.92 104.219 23.912C103.787 24.904 103.179 25.664 102.395 26.192C101.611 26.72 100.699 26.984 99.6587 26.984C98.9867 26.984 98.3707 26.88 97.8107 26.672C97.2507 26.448 96.7707 26.144 96.3707 25.76C95.9867 25.376 95.7067 24.936 95.5307 24.44H95.3867V30.752H92.3867ZM98.5307 24.536C99.2347 24.536 99.8347 24.368 100.331 24.032C100.827 23.696 101.195 23.216 101.435 22.592C101.691 21.952 101.819 21.208 101.819 20.36C101.819 19.496 101.699 18.752 101.459 18.128C101.219 17.504 100.859 17.024 100.379 16.688C99.8987 16.352 99.3067 16.184 98.6027 16.184C97.8987 16.184 97.3067 16.344 96.8267 16.664C96.3467 16.968 95.9867 17.392 95.7467 17.936C95.5067 18.464 95.3867 19.048 95.3867 19.688V21.056C95.3867 21.712 95.5147 22.304 95.7707 22.832C96.0267 23.344 96.3867 23.76 96.8507 24.08C97.3147 24.384 97.8747 24.536 98.5307 24.536Z" fill="#292A2B"/>
<path d="M79.2309 26.984C78.3829 26.984 77.6229 26.888 76.9509 26.696C76.2949 26.488 75.7269 26.208 75.2469 25.856C74.7829 25.488 74.4149 25.056 74.1429 24.56C73.8869 24.048 73.7509 23.48 73.7349 22.856H76.6869C76.7349 23.32 76.8709 23.696 77.0949 23.984C77.3189 24.272 77.6149 24.488 77.9829 24.632C78.3669 24.76 78.8069 24.824 79.3029 24.824C80.0709 24.824 80.6469 24.688 81.0309 24.416C81.4309 24.128 81.6309 23.736 81.6309 23.24C81.6309 22.84 81.5349 22.536 81.3429 22.328C81.1669 22.104 80.8789 21.936 80.4789 21.824C80.0949 21.696 79.5749 21.584 78.9189 21.488C77.8309 21.328 76.9269 21.112 76.2069 20.84C75.4869 20.552 74.9509 20.16 74.5989 19.664C74.2469 19.168 74.0709 18.512 74.0709 17.696C74.0709 16.896 74.2869 16.2 74.7189 15.608C75.1669 15.016 75.7829 14.56 76.5669 14.24C77.3509 13.904 78.2629 13.736 79.3029 13.736C80.3269 13.736 81.2149 13.896 81.9669 14.216C82.7189 14.536 83.3029 14.992 83.7189 15.584C84.1509 16.176 84.3829 16.864 84.4149 17.648H81.4629C81.4629 17.232 81.3589 16.896 81.1509 16.64C80.9589 16.384 80.6949 16.192 80.3589 16.064C80.0389 15.936 79.6629 15.872 79.2309 15.872C78.5589 15.872 78.0309 16.016 77.6469 16.304C77.2629 16.576 77.0709 16.952 77.0709 17.432C77.0709 17.784 77.1669 18.072 77.3589 18.296C77.5669 18.504 77.8949 18.672 78.3429 18.8C78.7909 18.928 79.3669 19.04 80.0709 19.136C81.0949 19.28 81.9429 19.488 82.6149 19.76C83.3029 20.032 83.8149 20.424 84.1509 20.936C84.5029 21.448 84.6789 22.128 84.6789 22.976C84.6789 23.824 84.4469 24.552 83.9829 25.16C83.5349 25.752 82.9029 26.208 82.0869 26.528C81.2709 26.832 80.3189 26.984 79.2309 26.984Z" fill="#292A2B"/>
<path d="M66.261 26.96C64.965 26.96 63.861 26.696 62.949 26.168C62.053 25.624 61.365 24.864 60.885 23.888C60.405 22.896 60.165 21.744 60.165 20.432C60.165 19.072 60.405 17.896 60.885 16.904C61.365 15.896 62.053 15.12 62.949 14.576C63.845 14.032 64.909 13.76 66.141 13.76C67.549 13.76 68.701 14.072 69.597 14.696C70.509 15.304 71.165 16.152 71.565 17.24C71.965 18.328 72.101 19.576 71.973 20.984H63.093C63.093 21.8 63.221 22.488 63.477 23.048C63.749 23.592 64.117 24.008 64.581 24.296C65.061 24.568 65.621 24.704 66.261 24.704C67.013 24.704 67.621 24.544 68.085 24.224C68.565 23.904 68.885 23.48 69.045 22.952H71.877C71.749 23.784 71.429 24.504 70.917 25.112C70.405 25.704 69.749 26.16 68.949 26.48C68.149 26.8 67.253 26.96 66.261 26.96ZM63.093 19.376L62.829 19.064H69.333L69.045 19.4C69.077 18.616 68.973 17.976 68.733 17.48C68.493 16.984 68.149 16.616 67.701 16.376C67.253 16.136 66.733 16.016 66.141 16.016C65.533 16.016 65.005 16.144 64.557 16.4C64.109 16.656 63.757 17.04 63.501 17.552C63.245 18.048 63.109 18.656 63.093 19.376Z" fill="#292A2B"/>
<path d="M48 26.744V9.24799H51.168V24.512L50.64 23.912H59.256V26.744H48Z" fill="#292A2B"/>
</svg>
