<svg width="219" height="30" viewBox="0 0 219 30" fill="none" xmlns="http://www.w3.org/2000/svg">
<path d="M10.9075 14.2936C12.522 14.2545 12.5311 11.4479 11.7028 9.89567C10.8656 8.341 9.70096 7.31834 8.55412 6.96526C7.40727 6.61219 6.71955 7.06407 6.13163 7.66493C5.69415 8.11204 5.45338 8.64912 5.64257 9.4864C5.73859 9.92712 5.93797 10.4685 6.30485 11.1039C6.61885 11.6478 7.0031 12.1434 7.43071 12.5835C8.46479 13.6429 9.76514 14.3272 10.9075 14.2936Z" fill="#57A770"/>
<path d="M16.2155 11.7404C17.4138 11.4378 17.6773 9.56827 17.5314 7.90448C17.4607 7.12859 17.3051 6.4017 17.1076 5.8898C16.7651 4.99601 15.7803 3.47816 14.7346 3.26041C13.693 3.04351 12.6163 3.91276 12.107 4.84078C11.5676 5.82369 11.6329 6.63854 12.3571 8.44167C13.0869 10.2415 14.4626 12.18 16.2155 11.7404Z" fill="#57A770"/>
<path d="M20.0831 8.74403C20.0831 8.74403 19.5499 9.93731 19.4772 11.2617C19.4441 11.8838 19.5072 12.542 19.7792 13.1177C20.3167 14.2577 20.9879 15.0151 21.7578 15.2118C22.2026 15.329 22.6733 15.2557 23.1769 14.965C24.5461 14.1745 25.1319 11.1646 24.0577 9.30407C22.9812 7.45248 21.1647 6.59293 20.0831 8.74403Z" fill="#57A770"/>
<path d="M11.17 19.073C11.1394 18.5105 10.8154 17.8579 10.1508 17.0204C10.0101 16.8421 9.85912 16.685 9.70243 16.5312C8.3116 15.2198 6.14983 14.7388 5.09962 15.3292C3.66371 16.1365 4.47493 18.8318 5.86704 19.9363C7.25915 21.0409 9.08917 21.7018 10.2687 20.7002C10.8839 20.1847 11.2033 19.6797 11.17 19.073Z" fill="#57A770"/>
<path d="M22.8628 17.1387C20.8201 15.7304 18.1815 14.8188 17.1074 14.5917C15.8191 14.3203 14.0514 15.4886 13.2079 16.7081C12.3748 17.9125 12.863 18.6604 12.4491 21.2886C12.2936 22.2867 12.23 23.3004 12.3532 24.2063C12.7474 27.032 13.2424 27.2744 14.5175 27.4732C15.4764 27.6227 16.9594 25.771 17.1286 25.6199C18.3326 24.5431 18.786 22.8434 21.5747 22.447C23.1622 22.2174 24.8251 21.4963 25.2164 20.5146C25.5093 19.7807 24.8893 18.8846 24.0077 18.0501C23.6641 17.7294 23.2776 17.4259 22.8628 17.1387Z" fill="#57A770"/>
<path d="M212.212 20.238C211.576 20.238 211.006 20.166 210.502 20.022C210.01 19.866 209.584 19.656 209.224 19.392C208.876 19.116 208.6 18.792 208.396 18.42C208.204 18.036 208.102 17.61 208.09 17.142H210.304C210.34 17.49 210.442 17.772 210.61 17.988C210.778 18.204 211 18.366 211.276 18.474C211.564 18.57 211.894 18.618 212.266 18.618C212.842 18.618 213.274 18.516 213.562 18.312C213.862 18.096 214.012 17.802 214.012 17.43C214.012 17.13 213.94 16.902 213.796 16.746C213.664 16.578 213.448 16.452 213.148 16.368C212.86 16.272 212.47 16.188 211.978 16.116C211.162 15.996 210.484 15.834 209.944 15.63C209.404 15.414 209.002 15.12 208.738 14.748C208.474 14.376 208.342 13.884 208.342 13.272C208.342 12.672 208.504 12.15 208.828 11.706C209.164 11.262 209.626 10.92 210.214 10.68C210.802 10.428 211.486 10.302 212.266 10.302C213.034 10.302 213.7 10.422 214.264 10.662C214.828 10.902 215.266 11.244 215.578 11.688C215.902 12.132 216.076 12.648 216.1 13.236H213.886C213.886 12.924 213.808 12.672 213.652 12.48C213.508 12.288 213.31 12.144 213.058 12.048C212.818 11.952 212.536 11.904 212.212 11.904C211.708 11.904 211.312 12.012 211.024 12.228C210.736 12.432 210.592 12.714 210.592 13.074C210.592 13.338 210.664 13.554 210.808 13.722C210.964 13.878 211.21 14.004 211.546 14.1C211.882 14.196 212.314 14.28 212.842 14.352C213.61 14.46 214.246 14.616 214.75 14.82C215.266 15.024 215.65 15.318 215.902 15.702C216.166 16.086 216.298 16.596 216.298 17.232C216.298 17.868 216.124 18.414 215.776 18.87C215.44 19.314 214.966 19.656 214.354 19.896C213.742 20.124 213.028 20.238 212.212 20.238Z" fill="#292A2B"/>
<path d="M202.485 20.22C201.513 20.22 200.685 20.022 200.001 19.626C199.329 19.218 198.813 18.648 198.453 17.916C198.093 17.172 197.913 16.308 197.913 15.324C197.913 14.304 198.093 13.422 198.453 12.678C198.813 11.922 199.329 11.34 200.001 10.932C200.673 10.524 201.471 10.32 202.395 10.32C203.451 10.32 204.315 10.554 204.987 11.022C205.671 11.478 206.163 12.114 206.463 12.93C206.763 13.746 206.865 14.682 206.769 15.738H200.109C200.109 16.35 200.205 16.866 200.397 17.286C200.601 17.694 200.877 18.006 201.225 18.222C201.585 18.426 202.005 18.528 202.485 18.528C203.049 18.528 203.505 18.408 203.853 18.168C204.213 17.928 204.453 17.61 204.573 17.214H206.697C206.601 17.838 206.361 18.378 205.977 18.834C205.593 19.278 205.101 19.62 204.501 19.86C203.901 20.1 203.229 20.22 202.485 20.22ZM200.109 14.532L199.911 14.298H204.789L204.573 14.55C204.597 13.962 204.519 13.482 204.339 13.11C204.159 12.738 203.901 12.462 203.565 12.282C203.229 12.102 202.839 12.012 202.395 12.012C201.939 12.012 201.543 12.108 201.207 12.3C200.871 12.492 200.607 12.78 200.415 13.164C200.223 13.536 200.121 13.992 200.109 14.532Z" fill="#292A2B"/>
<path d="M192.437 20.238C191.801 20.238 191.231 20.166 190.727 20.022C190.235 19.866 189.809 19.656 189.449 19.392C189.101 19.116 188.825 18.792 188.621 18.42C188.429 18.036 188.327 17.61 188.315 17.142H190.529C190.565 17.49 190.667 17.772 190.835 17.988C191.003 18.204 191.225 18.366 191.501 18.474C191.789 18.57 192.119 18.618 192.491 18.618C193.067 18.618 193.499 18.516 193.787 18.312C194.087 18.096 194.237 17.802 194.237 17.43C194.237 17.13 194.165 16.902 194.021 16.746C193.889 16.578 193.673 16.452 193.373 16.368C193.085 16.272 192.695 16.188 192.203 16.116C191.387 15.996 190.709 15.834 190.169 15.63C189.629 15.414 189.227 15.12 188.963 14.748C188.699 14.376 188.567 13.884 188.567 13.272C188.567 12.672 188.729 12.15 189.053 11.706C189.389 11.262 189.851 10.92 190.439 10.68C191.027 10.428 191.711 10.302 192.491 10.302C193.259 10.302 193.925 10.422 194.489 10.662C195.053 10.902 195.491 11.244 195.803 11.688C196.127 12.132 196.301 12.648 196.325 13.236H194.111C194.111 12.924 194.033 12.672 193.877 12.48C193.733 12.288 193.535 12.144 193.283 12.048C193.043 11.952 192.761 11.904 192.437 11.904C191.933 11.904 191.537 12.012 191.249 12.228C190.961 12.432 190.817 12.714 190.817 13.074C190.817 13.338 190.889 13.554 191.033 13.722C191.189 13.878 191.435 14.004 191.771 14.1C192.107 14.196 192.539 14.28 193.067 14.352C193.835 14.46 194.471 14.616 194.975 14.82C195.491 15.024 195.875 15.318 196.127 15.702C196.391 16.086 196.523 16.596 196.523 17.232C196.523 17.868 196.349 18.414 196.001 18.87C195.665 19.314 195.191 19.656 194.579 19.896C193.967 20.124 193.253 20.238 192.437 20.238Z" fill="#292A2B"/>
<path d="M181.041 20.22C180.321 20.22 179.703 20.076 179.187 19.788C178.671 19.5 178.275 19.074 177.999 18.51C177.735 17.934 177.603 17.238 177.603 16.422V10.482H179.853V15.828C179.853 16.368 179.925 16.83 180.069 17.214C180.213 17.586 180.435 17.874 180.735 18.078C181.035 18.282 181.425 18.384 181.905 18.384C182.385 18.384 182.799 18.264 183.147 18.024C183.507 17.784 183.783 17.466 183.975 17.07C184.167 16.662 184.263 16.206 184.263 15.702V10.482H186.513V20.058H184.353L184.263 18.204H184.155C183.915 18.852 183.513 19.35 182.949 19.698C182.397 20.046 181.761 20.22 181.041 20.22Z" fill="#292A2B"/>
<path d="M171.653 20.22C170.681 20.22 169.853 20.022 169.169 19.626C168.497 19.218 167.981 18.648 167.621 17.916C167.261 17.172 167.081 16.308 167.081 15.324C167.081 14.304 167.261 13.422 167.621 12.678C167.981 11.922 168.497 11.34 169.169 10.932C169.841 10.524 170.639 10.32 171.563 10.32C172.619 10.32 173.483 10.554 174.155 11.022C174.839 11.478 175.331 12.114 175.631 12.93C175.931 13.746 176.033 14.682 175.937 15.738H169.277C169.277 16.35 169.373 16.866 169.565 17.286C169.769 17.694 170.045 18.006 170.393 18.222C170.753 18.426 171.173 18.528 171.653 18.528C172.217 18.528 172.673 18.408 173.021 18.168C173.381 17.928 173.621 17.61 173.741 17.214H175.865C175.769 17.838 175.529 18.378 175.145 18.834C174.761 19.278 174.269 19.62 173.669 19.86C173.069 20.1 172.397 20.22 171.653 20.22ZM169.277 14.532L169.079 14.298H173.957L173.741 14.55C173.765 13.962 173.687 13.482 173.507 13.11C173.327 12.738 173.069 12.462 172.733 12.282C172.397 12.102 172.007 12.012 171.563 12.012C171.107 12.012 170.711 12.108 170.375 12.3C170.039 12.492 169.775 12.78 169.583 13.164C169.391 13.536 169.289 13.992 169.277 14.532Z" fill="#292A2B"/>
<path d="M160.925 20.058V10.482H162.959L163.067 12.084H163.139C163.355 11.472 163.703 11.034 164.183 10.77C164.675 10.494 165.233 10.356 165.857 10.356C165.965 10.356 166.061 10.356 166.145 10.356C166.241 10.356 166.331 10.356 166.415 10.356V12.48C166.343 12.48 166.253 12.48 166.145 12.48C166.049 12.468 165.941 12.462 165.821 12.462C165.245 12.462 164.765 12.558 164.381 12.75C163.997 12.93 163.703 13.194 163.499 13.542C163.307 13.89 163.199 14.316 163.175 14.82V20.058H160.925Z" fill="#292A2B"/>
<path d="M153.039 20.22C152.319 20.22 151.701 20.076 151.185 19.788C150.669 19.5 150.273 19.074 149.997 18.51C149.733 17.934 149.601 17.238 149.601 16.422V10.482H151.851V15.828C151.851 16.368 151.923 16.83 152.067 17.214C152.211 17.586 152.433 17.874 152.733 18.078C153.033 18.282 153.423 18.384 153.903 18.384C154.383 18.384 154.797 18.264 155.145 18.024C155.505 17.784 155.781 17.466 155.973 17.07C156.165 16.662 156.261 16.206 156.261 15.702V10.482H158.511V20.058H156.351L156.261 18.204H156.153C155.913 18.852 155.511 19.35 154.947 19.698C154.395 20.046 153.759 20.22 153.039 20.22Z" fill="#292A2B"/>
<path d="M143.651 20.22C142.679 20.22 141.851 20.022 141.167 19.626C140.495 19.218 139.979 18.648 139.619 17.916C139.259 17.172 139.079 16.308 139.079 15.324C139.079 14.304 139.259 13.422 139.619 12.678C139.979 11.922 140.495 11.34 141.167 10.932C141.839 10.524 142.637 10.32 143.561 10.32C144.617 10.32 145.481 10.554 146.153 11.022C146.837 11.478 147.329 12.114 147.629 12.93C147.929 13.746 148.031 14.682 147.935 15.738H141.275C141.275 16.35 141.371 16.866 141.563 17.286C141.767 17.694 142.043 18.006 142.391 18.222C142.751 18.426 143.171 18.528 143.651 18.528C144.215 18.528 144.671 18.408 145.019 18.168C145.379 17.928 145.619 17.61 145.739 17.214H147.863C147.767 17.838 147.527 18.378 147.143 18.834C146.759 19.278 146.267 19.62 145.667 19.86C145.067 20.1 144.395 20.22 143.651 20.22ZM141.275 14.532L141.077 14.298H145.955L145.739 14.55C145.763 13.962 145.685 13.482 145.505 13.11C145.325 12.738 145.067 12.462 144.731 12.282C144.395 12.102 144.005 12.012 143.561 12.012C143.105 12.012 142.709 12.108 142.373 12.3C142.037 12.492 141.773 12.78 141.581 13.164C141.389 13.536 141.287 13.992 141.275 14.532Z" fill="#292A2B"/>
<path d="M128.37 20.058V6.93597H130.62V12.3H130.728C131.004 11.628 131.424 11.13 131.988 10.806C132.552 10.47 133.182 10.302 133.878 10.302C134.358 10.302 134.802 10.38 135.21 10.536C135.63 10.68 135.99 10.914 136.29 11.238C136.602 11.55 136.842 11.964 137.01 12.48C137.19 12.984 137.28 13.596 137.28 14.316V20.058H135.03V14.802C135.03 14.202 134.958 13.71 134.814 13.326C134.67 12.93 134.448 12.636 134.148 12.444C133.86 12.252 133.482 12.156 133.014 12.156C132.51 12.156 132.078 12.276 131.718 12.516C131.37 12.756 131.1 13.074 130.908 13.47C130.716 13.866 130.62 14.304 130.62 14.784V20.058H128.37Z" fill="#292A2B"/>
<path d="M118.503 20.238C117.867 20.238 117.297 20.166 116.793 20.022C116.301 19.866 115.875 19.656 115.515 19.392C115.167 19.116 114.891 18.792 114.687 18.42C114.495 18.036 114.393 17.61 114.381 17.142H116.595C116.631 17.49 116.733 17.772 116.901 17.988C117.069 18.204 117.291 18.366 117.567 18.474C117.855 18.57 118.185 18.618 118.557 18.618C119.133 18.618 119.565 18.516 119.853 18.312C120.153 18.096 120.303 17.802 120.303 17.43C120.303 17.13 120.231 16.902 120.087 16.746C119.955 16.578 119.739 16.452 119.439 16.368C119.151 16.272 118.761 16.188 118.269 16.116C117.453 15.996 116.775 15.834 116.235 15.63C115.695 15.414 115.293 15.12 115.029 14.748C114.765 14.376 114.633 13.884 114.633 13.272C114.633 12.672 114.795 12.15 115.119 11.706C115.455 11.262 115.917 10.92 116.505 10.68C117.093 10.428 117.777 10.302 118.557 10.302C119.325 10.302 119.991 10.422 120.555 10.662C121.119 10.902 121.557 11.244 121.869 11.688C122.193 12.132 122.367 12.648 122.391 13.236H120.177C120.177 12.924 120.099 12.672 119.943 12.48C119.799 12.288 119.601 12.144 119.349 12.048C119.109 11.952 118.827 11.904 118.503 11.904C117.999 11.904 117.603 12.012 117.315 12.228C117.027 12.432 116.883 12.714 116.883 13.074C116.883 13.338 116.955 13.554 117.099 13.722C117.255 13.878 117.501 14.004 117.837 14.1C118.173 14.196 118.605 14.28 119.133 14.352C119.901 14.46 120.537 14.616 121.041 14.82C121.557 15.024 121.941 15.318 122.193 15.702C122.457 16.086 122.589 16.596 122.589 17.232C122.589 17.868 122.415 18.414 122.067 18.87C121.731 19.314 121.257 19.656 120.645 19.896C120.033 20.124 119.319 20.238 118.503 20.238Z" fill="#292A2B"/>
<path d="M108.776 20.22C107.804 20.22 106.976 20.022 106.292 19.626C105.62 19.218 105.104 18.648 104.744 17.916C104.384 17.172 104.204 16.308 104.204 15.324C104.204 14.304 104.384 13.422 104.744 12.678C105.104 11.922 105.62 11.34 106.292 10.932C106.964 10.524 107.762 10.32 108.686 10.32C109.742 10.32 110.606 10.554 111.278 11.022C111.962 11.478 112.454 12.114 112.754 12.93C113.054 13.746 113.156 14.682 113.06 15.738H106.4C106.4 16.35 106.496 16.866 106.688 17.286C106.892 17.694 107.168 18.006 107.516 18.222C107.876 18.426 108.296 18.528 108.776 18.528C109.34 18.528 109.796 18.408 110.144 18.168C110.504 17.928 110.744 17.61 110.864 17.214H112.988C112.892 17.838 112.652 18.378 112.268 18.834C111.884 19.278 111.392 19.62 110.792 19.86C110.192 20.1 109.52 20.22 108.776 20.22ZM106.4 14.532L106.202 14.298H111.08L110.864 14.55C110.888 13.962 110.81 13.482 110.63 13.11C110.45 12.738 110.192 12.462 109.856 12.282C109.52 12.102 109.13 12.012 108.686 12.012C108.23 12.012 107.834 12.108 107.498 12.3C107.162 12.492 106.898 12.78 106.706 13.164C106.514 13.536 106.412 13.992 106.4 14.532Z" fill="#292A2B"/>
<path d="M95.3276 20.058C94.5596 20.058 93.9836 19.878 93.5996 19.518C93.2276 19.146 93.0416 18.558 93.0416 17.754V12.3H91.2776V10.482H93.0416V7.78197L95.2916 7.54797V10.482H98.8376V7.78197L101.088 7.54797V10.482H103.104V12.3H101.088V17.34C101.088 17.664 101.16 17.892 101.304 18.024C101.46 18.144 101.682 18.204 101.97 18.204H103.122V20.058H101.124C100.356 20.058 99.7796 19.878 99.3956 19.518C99.0236 19.146 98.8376 18.558 98.8376 17.754V12.3H95.2916V17.34C95.2916 17.664 95.3636 17.892 95.5076 18.024C95.6636 18.144 95.8856 18.204 96.1736 18.204H97.3256V20.058H95.3276Z" fill="#292A2B"/>
<path d="M84.2944 20.22C83.7064 20.22 83.1724 20.112 82.6924 19.896C82.2124 19.668 81.7984 19.344 81.4504 18.924C81.1024 18.492 80.8324 17.97 80.6404 17.358C80.4604 16.734 80.3704 16.038 80.3704 15.27C80.3704 14.226 80.5324 13.332 80.8564 12.588C81.1924 11.844 81.6544 11.28 82.2424 10.896C82.8304 10.5 83.5144 10.302 84.2944 10.302C84.7984 10.302 85.2544 10.38 85.6624 10.536C86.0824 10.692 86.4364 10.914 86.7244 11.202C87.0244 11.49 87.2464 11.826 87.3904 12.21H87.5164L87.6064 10.482H89.7304V20.058H87.6064L87.5164 18.312H87.3904C87.1864 18.888 86.8084 19.35 86.2564 19.698C85.7044 20.046 85.0504 20.22 84.2944 20.22ZM85.0864 18.384C85.6144 18.384 86.0524 18.27 86.4004 18.042C86.7604 17.802 87.0304 17.484 87.2104 17.088C87.3904 16.692 87.4804 16.254 87.4804 15.774V14.748C87.4804 14.256 87.3844 13.812 87.1924 13.416C87.0124 13.02 86.7424 12.708 86.3824 12.48C86.0344 12.252 85.6204 12.138 85.1404 12.138C84.6004 12.138 84.1444 12.264 83.7724 12.516C83.4124 12.756 83.1364 13.11 82.9444 13.578C82.7524 14.046 82.6564 14.61 82.6564 15.27C82.6564 15.906 82.7464 16.458 82.9264 16.926C83.1184 17.394 83.3944 17.754 83.7544 18.006C84.1144 18.258 84.5584 18.384 85.0864 18.384Z" fill="#292A2B"/>
<path d="M69.29 23.064V10.482H71.432L71.522 12.228H71.648C71.852 11.652 72.23 11.19 72.782 10.842C73.334 10.482 73.988 10.302 74.744 10.302C75.332 10.302 75.866 10.416 76.346 10.644C76.826 10.872 77.24 11.202 77.588 11.634C77.936 12.054 78.2 12.57 78.38 13.182C78.572 13.794 78.668 14.49 78.668 15.27C78.668 16.302 78.5 17.19 78.164 17.934C77.84 18.678 77.384 19.248 76.796 19.644C76.208 20.04 75.524 20.238 74.744 20.238C74.24 20.238 73.778 20.16 73.358 20.004C72.938 19.836 72.578 19.608 72.278 19.32C71.99 19.032 71.78 18.702 71.648 18.33H71.54V23.064H69.29ZM73.898 18.402C74.426 18.402 74.876 18.276 75.248 18.024C75.62 17.772 75.896 17.412 76.076 16.944C76.268 16.464 76.364 15.906 76.364 15.27C76.364 14.622 76.274 14.064 76.094 13.596C75.914 13.128 75.644 12.768 75.284 12.516C74.924 12.264 74.48 12.138 73.952 12.138C73.424 12.138 72.98 12.258 72.62 12.498C72.26 12.726 71.99 13.044 71.81 13.452C71.63 13.848 71.54 14.286 71.54 14.766V15.792C71.54 16.284 71.636 16.728 71.828 17.124C72.02 17.508 72.29 17.82 72.638 18.06C72.986 18.288 73.406 18.402 73.898 18.402Z" fill="#292A2B"/>
<path d="M59.423 20.238C58.787 20.238 58.217 20.166 57.713 20.022C57.221 19.866 56.795 19.656 56.435 19.392C56.087 19.116 55.811 18.792 55.607 18.42C55.415 18.036 55.313 17.61 55.301 17.142H57.515C57.551 17.49 57.653 17.772 57.821 17.988C57.989 18.204 58.211 18.366 58.487 18.474C58.775 18.57 59.105 18.618 59.477 18.618C60.053 18.618 60.485 18.516 60.773 18.312C61.073 18.096 61.223 17.802 61.223 17.43C61.223 17.13 61.151 16.902 61.007 16.746C60.875 16.578 60.659 16.452 60.359 16.368C60.071 16.272 59.681 16.188 59.189 16.116C58.373 15.996 57.695 15.834 57.155 15.63C56.615 15.414 56.213 15.12 55.949 14.748C55.685 14.376 55.553 13.884 55.553 13.272C55.553 12.672 55.715 12.15 56.039 11.706C56.375 11.262 56.837 10.92 57.425 10.68C58.013 10.428 58.697 10.302 59.477 10.302C60.245 10.302 60.911 10.422 61.475 10.662C62.039 10.902 62.477 11.244 62.789 11.688C63.113 12.132 63.287 12.648 63.311 13.236H61.097C61.097 12.924 61.019 12.672 60.863 12.48C60.719 12.288 60.521 12.144 60.269 12.048C60.029 11.952 59.747 11.904 59.423 11.904C58.919 11.904 58.523 12.012 58.235 12.228C57.947 12.432 57.803 12.714 57.803 13.074C57.803 13.338 57.875 13.554 58.019 13.722C58.175 13.878 58.421 14.004 58.757 14.1C59.093 14.196 59.525 14.28 60.053 14.352C60.821 14.46 61.457 14.616 61.961 14.82C62.477 15.024 62.861 15.318 63.113 15.702C63.377 16.086 63.509 16.596 63.509 17.232C63.509 17.868 63.335 18.414 62.987 18.87C62.651 19.314 62.177 19.656 61.565 19.896C60.953 20.124 60.239 20.238 59.423 20.238Z" fill="#292A2B"/>
<path d="M49.6958 20.22C48.7238 20.22 47.8958 20.022 47.2118 19.626C46.5398 19.218 46.0238 18.648 45.6638 17.916C45.3038 17.172 45.1238 16.308 45.1238 15.324C45.1238 14.304 45.3038 13.422 45.6638 12.678C46.0238 11.922 46.5398 11.34 47.2118 10.932C47.8838 10.524 48.6818 10.32 49.6058 10.32C50.6618 10.32 51.5258 10.554 52.1978 11.022C52.8818 11.478 53.3738 12.114 53.6738 12.93C53.9738 13.746 54.0758 14.682 53.9798 15.738H47.3198C47.3198 16.35 47.4158 16.866 47.6078 17.286C47.8118 17.694 48.0878 18.006 48.4358 18.222C48.7958 18.426 49.2158 18.528 49.6958 18.528C50.2598 18.528 50.7158 18.408 51.0638 18.168C51.4238 17.928 51.6638 17.61 51.7838 17.214H53.9078C53.8118 17.838 53.5718 18.378 53.1878 18.834C52.8038 19.278 52.3118 19.62 51.7118 19.86C51.1118 20.1 50.4398 20.22 49.6958 20.22ZM47.3198 14.532L47.1218 14.298H51.9998L51.7838 14.55C51.8078 13.962 51.7298 13.482 51.5498 13.11C51.3698 12.738 51.1118 12.462 50.7758 12.282C50.4398 12.102 50.0498 12.012 49.6058 12.012C49.1498 12.012 48.7538 12.108 48.4178 12.3C48.0818 12.492 47.8178 12.78 47.6258 13.164C47.4338 13.536 47.3318 13.992 47.3198 14.532Z" fill="#292A2B"/>
<path d="M36 20.058V6.93597H38.376V18.384L37.98 17.934H44.442V20.058H36Z" fill="#292A2B"/>
</svg>
