<svg width="24" height="24" viewBox="0 0 24 24" fill="none" xmlns="http://www.w3.org/2000/svg">
<path fill-rule="evenodd" clip-rule="evenodd" d="M8.75147 17.6484C8.5265 17.4234 8.40012 17.1182 8.40012 16.8C8.40012 16.4818 8.5265 16.1766 8.75147 15.9516L12.7031 12L8.75147 8.04841C8.53288 7.82209 8.41192 7.51897 8.41466 7.20433C8.41739 6.8897 8.54359 6.58872 8.76608 6.36623C8.98857 6.14374 9.28955 6.01754 9.60419 6.0148C9.91882 6.01207 10.2219 6.13302 10.4483 6.35161L15.2483 11.1516C15.4732 11.3766 15.5996 11.6818 15.5996 12C15.5996 12.3182 15.4732 12.6234 15.2483 12.8484L10.4483 17.6484C10.2232 17.8734 9.91806 17.9998 9.59987 17.9998C9.28167 17.9998 8.9765 17.8734 8.75147 17.6484Z" fill="#6C6D6E"/>
</svg>
