<?xml version="1.0" encoding="UTF-8"?>
<svg version="1.1" xmlns="http://www.w3.org/2000/svg" width="512" height="512">
<path d="M0 0 C1.16144028 -0.01045349 1.16144028 -0.01045349 2.34634399 -0.02111816 C4.82991039 -0.03840077 7.31325098 -0.04483733 9.796875 -0.046875 C10.64558167 -0.04788208 11.49428833 -0.04888916 12.36871338 -0.04992676 C25.31732283 -0.03953143 37.84146467 0.50812596 50.546875 3.203125 C51.25312012 3.34234375 51.95936523 3.4815625 52.68701172 3.625 C68.95096428 6.88306979 83.05899247 13.68018431 96.546875 23.203125 C97.21976562 23.66976562 97.89265625 24.13640625 98.5859375 24.6171875 C108.41785194 32.21245789 117.73700251 45.36124522 121.546875 57.203125 C121.20663509 63.54336491 121.20663509 63.54336491 118.546875 66.203125 C118.68383853 68.25757793 118.84850711 70.3133763 119.140625 72.3515625 C119.44605356 74.49543602 119.6848726 76.64896345 119.890625 78.8046875 C120.0246875 80.04992187 120.15875 81.29515625 120.296875 82.578125 C120.41546875 83.76148437 120.5340625 84.94484375 120.65625 86.1640625 C121.25585673 89.37912719 121.25585673 89.37912719 124 90.9296875 C125.26070313 91.56003906 125.26070313 91.56003906 126.546875 92.203125 C133.44790821 102.55467481 127.29688064 125.40674963 125.01220703 136.890625 C123.97194661 141.69210845 122.80273653 146.45380096 121.546875 151.203125 C122.76117188 151.161875 123.97546875 151.120625 125.2265625 151.078125 C131.60586448 151.08936111 136.77568963 153.58298957 141.41015625 157.96484375 C147.39928107 165.29149024 149.16971451 173.8088145 148.89453125 183.1171875 C147.60475271 194.56578349 142.37953942 203.73699346 133.4375 210.890625 C128.91015949 214.03357213 124.73484938 216.16799697 119.140625 216.2578125 C115.07997488 216.33590193 112.2816682 216.56087551 108.546875 218.203125 C104.97326544 222.75429317 103.31606236 228.56304431 101.3984375 233.953125 C95.95610153 248.33287509 84.12188623 263.19076378 72.3125 272.91796875 C71.76118408 273.38259521 71.20986816 273.84722168 70.6418457 274.32592773 C69.06764959 275.6339319 67.46224526 276.90410627 65.85546875 278.171875 C62.50738502 282.56800524 63.07805208 285.86242429 63.546875 291.203125 C63.65020142 292.80752441 63.65020142 292.80752441 63.75561523 294.44433594 C63.98715941 297.90884966 64.26139664 301.36766437 64.546875 304.828125 C64.68996094 306.62056641 64.68996094 306.62056641 64.8359375 308.44921875 C65.06939932 311.36749149 65.30713848 314.28536317 65.546875 317.203125 C66.19378296 317.29651657 66.84069092 317.38990814 67.50720215 317.48612976 C77.2835582 318.9992143 86.84131139 321.29061516 96.453125 323.59765625 C98.26808986 324.03129673 100.08307229 324.46486367 101.89807129 324.89836121 C105.68425594 325.80392639 109.46956329 326.7130634 113.25439453 327.62426758 C118.07311845 328.78367738 122.89485959 329.92996945 127.71747589 331.07306385 C131.46148518 331.96280713 135.20326286 332.86166999 138.94450378 333.76297569 C140.72008979 334.18918974 142.49645385 334.61217735 144.27363586 335.03168678 C164.51695097 339.81833807 181.45402727 346.1118409 193.546875 364.203125 C201.26163325 377.77162525 203.02806712 392.42151729 204.58984375 407.66796875 C204.76430865 409.31659801 204.93939482 410.96516162 205.11506653 412.61366272 C205.47867116 416.04118273 205.8370518 419.46919139 206.19116211 422.89770508 C206.64408089 427.28181977 207.10686175 431.66482166 207.57310009 436.0475378 C207.93351476 439.4402135 208.29048125 442.83324442 208.64623451 446.22641182 C208.81582308 447.84314434 208.98607028 449.45980793 209.1570034 451.07639885 C209.39460844 453.33177869 209.62798575 455.5875559 209.86010742 457.84350586 C209.99317795 459.12333847 210.12624847 460.40317108 210.26335144 461.7217865 C210.97183929 470.4211907 210.97183929 470.4211907 208.984375 474.078125 C206.546875 476.203125 206.546875 476.203125 203.046875 476.765625 C199.546875 476.203125 199.546875 476.203125 197.109375 474.390625 C195.546875 472.203125 195.546875 472.203125 195.546875 469.203125 C73.446875 469.203125 -48.653125 469.203125 -174.453125 469.203125 C-174.783125 470.853125 -175.113125 472.503125 -175.453125 474.203125 C-179.18567948 476.69149465 -181.03753435 476.74539052 -185.453125 476.203125 C-188.26926245 473.53306428 -189.38964608 472.02639577 -189.69091797 468.11914062 C-189.56861816 466.96091797 -189.44631836 465.80269531 -189.3203125 464.609375 C-189.25858856 463.9642395 -189.19686462 463.319104 -189.13327026 462.65441895 C-188.99655142 461.24768082 -188.85012524 459.84186025 -188.69519043 458.43701172 C-188.44608927 456.13819622 -188.23301771 453.8383291 -188.02832031 451.53515625 C-187.65945996 447.42710521 -187.25454366 443.32371139 -186.83349609 439.22070312 C-186.66184637 437.52849284 -186.49525909 435.83576211 -186.33349609 434.14257812 C-186.09532663 431.65110599 -185.84229978 429.1615332 -185.5859375 426.671875 C-185.51706329 425.9238562 -185.44818909 425.1758374 -185.37722778 424.40515137 C-184.84864152 419.49483575 -183.74741353 415.5995177 -181.453125 411.203125 C-178.765625 409.765625 -178.765625 409.765625 -176.453125 409.203125 C-176.0017627 405.93610045 -175.59810338 402.66490596 -175.203125 399.390625 C-175.07421875 398.46185547 -174.9453125 397.53308594 -174.8125 396.57617188 C-174.709375 395.68349609 -174.60625 394.79082031 -174.5 393.87109375 C-174.39526367 393.04891357 -174.29052734 392.2267334 -174.18261719 391.37963867 C-174.22400359 389.01907294 -174.22400359 389.01907294 -176.39526367 387.58789062 C-177.41390503 386.90243164 -177.41390503 386.90243164 -178.453125 386.203125 C-180.57888083 379.37236294 -177.48335317 374.27912098 -174.453125 368.203125 C-169.9120537 359.67950988 -169.9120537 359.67950988 -165.390625 358.203125 C-164.42125 358.203125 -163.451875 358.203125 -162.453125 358.203125 C-158.28447578 357.69575651 -155.85903798 356.33172334 -152.515625 353.828125 C-143.38754492 347.203125 -143.38754492 347.203125 -139.453125 347.203125 C-139.4325 346.11 -139.411875 345.016875 -139.390625 343.890625 C-139.08125 342.67375 -138.771875 341.456875 -138.453125 340.203125 C-133.51752251 337.60590127 -128.40222157 336.28774291 -122.99511719 335.02661133 C-121.77186234 334.73334709 -121.77186234 334.73334709 -120.52389526 334.43415833 C-117.85069084 333.79498694 -115.17544448 333.16487936 -112.5 332.53515625 C-110.63378275 332.09149322 -108.7676751 331.64736893 -106.90167236 331.20280457 C-103.0024244 330.27523775 -99.10220232 329.3519256 -95.20117188 328.43188477 C-90.19702865 327.25151598 -85.19497305 326.0625693 -80.19355392 324.87071705 C-76.34583536 323.95441803 -72.49729809 323.04159972 -68.64847565 322.12994957 C-66.80305422 321.69259827 -64.95783312 321.25440083 -63.11281586 320.81534767 C-60.54051572 320.20399312 -57.96720891 319.59708018 -55.39355469 318.99145508 C-54.24803635 318.71800262 -54.24803635 318.71800262 -53.07937622 318.43902588 C-50.13169054 317.74943085 -47.49211036 317.203125 -44.453125 317.203125 C-44.11325919 313.0786365 -43.78244042 308.95346822 -43.453125 304.828125 C-43.31003906 303.09369141 -43.31003906 303.09369141 -43.1640625 301.32421875 C-42.98260725 299.03010593 -42.81708621 296.73467393 -42.66796875 294.43823242 C-42.53340063 292.41191185 -42.36430858 290.3872647 -42.14453125 288.3684082 C-41.88026115 284.81255962 -41.7268967 282.30243095 -43.734375 279.26367188 C-45.54058703 277.3897269 -47.42365112 275.76936864 -49.453125 274.140625 C-50.84101163 272.93904494 -52.2264486 271.73462935 -53.609375 270.52734375 C-54.61097656 269.67148682 -54.61097656 269.67148682 -55.6328125 268.79833984 C-70.58413033 255.69588401 -80.25219259 236.40007583 -87.453125 218.203125 C-88.32453125 218.12835938 -89.1959375 218.05359375 -90.09375 217.9765625 C-101.19023714 216.75162561 -111.2832108 213.68617675 -118.9921875 205.1875 C-125.89146874 195.81628377 -128.37839178 185.70286932 -127.453125 174.203125 C-126.2543001 167.20158461 -123.66817751 161.13391889 -118.453125 156.203125 C-112.3568168 152.0061691 -107.72940117 150.95594789 -100.453125 151.203125 C-100.59411621 150.62570557 -100.73510742 150.04828613 -100.88037109 149.45336914 C-109.16124593 115.21422369 -113.29714749 77.00401186 -94.640625 45.265625 C-90.77233381 39.37143558 -86.42474642 34.19145775 -81.453125 29.203125 C-80.34904297 28.06423828 -80.34904297 28.06423828 -79.22265625 26.90234375 C-58.87975425 7.17279558 -27.56193321 0.16852014 0 0 Z " fill="#020201" transform="translate(245.453125,17.796875)"/>
<path d="M0 0 C0.63615234 1.83111328 0.63615234 1.83111328 1.28515625 3.69921875 C6.86137564 19.48082006 13.00663979 32.14650405 25 44 C25.65742188 44.66773438 26.31484375 45.33546875 26.9921875 46.0234375 C41.55163731 59.8330444 62.10590765 66.52746 81.83618164 66.35327148 C106.41435803 65.66856742 126.59242478 55.15796976 143.25 37.6328125 C151.79729633 27.71661325 159.36613686 13.0709051 161 0 C169.69244746 1.48179523 178.28060999 3.34747844 186.875 5.3125 C187.55231171 5.46717743 188.22962341 5.62185486 188.92745972 5.78121948 C191.68342665 6.41093603 194.43928578 7.04110128 197.19450378 7.67408752 C201.19142374 8.59145177 205.19273041 9.48484545 209.19921875 10.359375 C225.69652416 14.01214121 240.28420808 18.33727024 250.90625 32.55078125 C256.64534302 41.59547933 258.49038446 50.70909794 259.5625 61.25 C259.68689453 62.39678223 259.81128906 63.54356445 259.93945312 64.72509766 C260.76503179 72.42800322 261.52171642 80.13813018 262.22631836 87.85302734 C262.69942439 93.00156307 263.22526804 98.14179034 263.7890625 103.28125 C263.99595703 105.1677124 263.99595703 105.1677124 264.20703125 107.09228516 C264.47981827 109.56107143 264.75571758 112.02951637 265.03515625 114.49755859 C265.16019531 115.63016113 265.28523438 116.76276367 265.4140625 117.9296875 C265.5270166 118.93241699 265.6399707 119.93514648 265.75634766 120.96826172 C266.02430389 124.30241053 266 127.65510107 266 131 C143.9 131 21.8 131 -104 131 C-104.33 132.65 -104.66 134.3 -105 136 C-108.73255448 138.48836965 -110.58440935 138.54226552 -115 138 C-117.81613745 135.32993928 -118.93652108 133.82327077 -119.23779297 129.91601562 C-119.11549316 128.75779297 -118.99319336 127.59957031 -118.8671875 126.40625 C-118.80546356 125.7611145 -118.74373962 125.115979 -118.68014526 124.45129395 C-118.54342642 123.04455582 -118.39700024 121.63873525 -118.24206543 120.23388672 C-117.99296427 117.93507122 -117.77989271 115.6352041 -117.57519531 113.33203125 C-117.20633496 109.22398021 -116.80141866 105.12058639 -116.38037109 101.01757812 C-116.20872137 99.32536784 -116.04213409 97.63263711 -115.88037109 95.93945312 C-115.64220163 93.44798099 -115.38917478 90.9584082 -115.1328125 88.46875 C-115.06393829 87.7207312 -114.99506409 86.9727124 -114.92410278 86.20202637 C-114.39551652 81.29171075 -113.29428853 77.3963927 -111 73 C-108.3125 71.5625 -108.3125 71.5625 -106 71 C-105.5486377 67.73297545 -105.14497838 64.46178096 -104.75 61.1875 C-104.55664062 59.7943457 -104.55664062 59.7943457 -104.359375 58.37304688 C-104.2046875 57.0340332 -104.2046875 57.0340332 -104.046875 55.66796875 C-103.94213867 54.84578857 -103.83740234 54.0236084 -103.72949219 53.17651367 C-103.77087859 50.81594794 -103.77087859 50.81594794 -105.94213867 49.38476562 C-106.62123291 48.92779297 -107.30032715 48.47082031 -108 48 C-110.12575583 41.16923794 -107.03022817 36.07599598 -104 30 C-99.4589287 21.47638488 -99.4589287 21.47638488 -94.9375 20 C-93.968125 20 -92.99875 20 -92 20 C-87.83135078 19.49263151 -85.40591298 18.12859834 -82.0625 15.625 C-72.92081622 9 -72.92081622 9 -68 9 C-67.54882812 9.65742188 -67.09765625 10.31484375 -66.6328125 10.9921875 C-65.18444272 13.224014 -65.18444272 13.224014 -62.7421875 13.3828125 C-51.71897201 12.39162419 -41.12748944 9.55545753 -30.41943359 6.85693359 C-24.64272796 5.4092514 -18.85260909 4.0179036 -13.0625 2.625 C-11.98452148 2.36243408 -10.90654297 2.09986816 -9.79589844 1.8293457 C-8.80235352 1.58917725 -7.80880859 1.34900879 -6.78515625 1.1015625 C-5.90738525 0.88838379 -5.02961426 0.67520508 -4.12524414 0.45556641 C-2 0 -2 0 0 0 Z " fill="#B3E59F" transform="translate(175,356)"/>
<path d="M0 0 C23.46520825 2.33248637 47.29753792 2.17483882 70.74194336 -0.27441406 C84.83560837 -1.64052495 84.83560837 -1.64052495 90.33569336 0.91308594 C94.9152203 5.26363653 95.88281186 9.17246483 96.64819336 15.28808594 C98.48395267 28.4694397 104.37453618 40.00856724 114.65209961 48.46777344 C126.06347742 58.17366459 126.06347742 58.17366459 126.68725586 65.13964844 C126.65342578 70.2848048 125.79990505 75.24798153 124.83569336 80.28808594 C124.62379528 81.69863134 124.41769003 83.11006411 124.21850586 84.52246094 C123.6154187 88.48906794 122.77711493 92.38901547 121.83569336 96.28808594 C121.67617188 96.9587207 121.51665039 97.62935547 121.35229492 98.3203125 C115.82388151 120.80535668 104.77830204 139.6128206 88.83569336 156.28808594 C88.23756836 156.949375 87.63944336 157.61066406 87.02319336 158.29199219 C76.58833423 169.42400785 63.62955609 177.0761771 49.83569336 183.28808594 C49.07643555 183.67996094 48.31717773 184.07183594 47.53491211 184.47558594 C37.36861428 187.535774 23.06515046 186.77493406 13.67553711 181.95214844 C12.26981445 181.1284375 12.26981445 181.1284375 10.83569336 180.28808594 C9.65023177 179.64869802 8.46398442 179.01076557 7.27709961 178.37402344 C-2.19623115 173.13252121 -10.23836397 166.61939709 -18.16430664 159.28808594 C-19.07051758 158.464375 -19.97672852 157.64066406 -20.91040039 156.79199219 C-44.56888048 134.31459067 -55.61033102 102.32204915 -57.99169922 70.37597656 C-58.13235734 68.29321141 -58.13235734 68.29321141 -58.51464844 66.27832031 C-58.9248926 62.82631763 -58.69834292 61.00580822 -56.58642578 58.16748047 C-54.33906472 55.85340209 -52.00363541 53.69122462 -49.60180664 51.53808594 C-42.61729984 44.93546486 -37.10410139 39.162992 -33.16430664 30.28808594 C-32.84848633 29.64613281 -32.53266602 29.00417969 -32.20727539 28.34277344 C-29.93916274 23.18086189 -29.21932003 17.55786842 -28.42895508 12.00976562 C-27.68557254 7.3765385 -26.4436307 4.64096493 -23.16430664 1.28808594 C-16.84836877 -2.92253931 -7.31023604 -0.72836675 0 0 Z " fill="#FDDF9F" transform="translate(222.164306640625,120.7119140625)"/>
<path d="M0 0 C1.06433762 0.00081573 1.06433762 0.00081573 2.150177 0.00164795 C32.02291559 0.10590706 63.02340776 5.71734218 85.125 27.375 C99.125 43.68865936 99.125 43.68865936 99.125 51.375 C101.765 51.705 104.405 52.035 107.125 52.375 C110.15572149 60.22732386 111.19501421 68.07077396 112.125 76.375 C111.155625 77.014375 110.18625 77.65375 109.1875 78.3125 C106.36463731 80.0715259 106.36463731 80.0715259 105.125 81.375 C105.0156443 82.76255629 104.96912906 84.15515854 104.94921875 85.546875 C104.71308411 95.41495977 104.13155192 104.9818207 102.25 114.6875 C102.08846436 115.52700195 101.92692871 116.36650391 101.76049805 117.23144531 C100.62213322 122.76680647 99.02511493 128.05515682 97.125 133.375 C87.18546369 128.71840602 81.71911185 118.34257839 78.04296875 108.46875 C77.10717589 105.31492896 76.71301928 102.39251973 76.375 99.125 C75.18699417 91.05761159 72.20573104 84.36467571 65.5625 79.375 C55.71704986 73.6467381 45.54158344 74.98515679 34.58203125 76.09570312 C11.54244101 78.41915969 -11.50562385 77.92199933 -34.5390625 75.8359375 C-49.39508701 74.13131457 -49.39508701 74.13131457 -62.875 79.375 C-63.761875 79.931875 -64.64875 80.48875 -65.5625 81.0625 C-71.14626382 86.64626382 -73.1409296 92.61993352 -74.4375 100.3125 C-76.88060099 114.76918296 -82.90138135 125.47153998 -94.875 134.375 C-100.44176697 118.89924708 -102.23880289 103.14561807 -102.25 86.75 C-102.25153076 85.51870361 -102.25306152 84.28740723 -102.25463867 83.01879883 C-102.00181543 62.07401792 -96.89111774 42.14554715 -82.1484375 26.52734375 C-69.60234158 14.64951067 -55.42578844 8.53380781 -38.875 4.375 C-38.17375 4.17261719 -37.4725 3.97023437 -36.75 3.76171875 C-24.87793288 0.4099067 -12.24956601 -0.03578521 0 0 Z " fill="#FD9563" transform="translate(254.875,31.625)"/>
<path d="M0 0 C1.05058594 0.54269531 2.10117188 1.08539063 3.18359375 1.64453125 C4.60139503 2.36751601 6.01937337 3.09015361 7.4375 3.8125 C8.12521484 4.16892578 8.81292969 4.52535156 9.52148438 4.89257812 C18.91236165 9.65353451 26.7268235 11.53875638 37.3125 11.4375 C38.42536377 11.42920166 39.53822754 11.42090332 40.68481445 11.41235352 C48.4478453 11.25208523 54.97939349 10.49519435 62 7 C63.27199176 6.39162664 64.54413817 5.78357656 65.81640625 5.17578125 C69.24487592 3.51207079 72.62826984 1.77564488 76 0 C77.38816327 10.51037902 78.2426789 20.95696357 78.375 31.5625 C78.40078125 32.54798828 78.4265625 33.53347656 78.453125 34.54882812 C78.48286548 45.5602411 74.49354293 54.03255712 67 62 C57.3519904 71.07415029 48.32916252 73.61340343 35.33154297 73.47070312 C23.47051535 73.05210482 15.20312789 68.48508825 7.0234375 59.93359375 C2.43890397 54.48092515 -0.00800267 48.80063604 -2 42 C-2.18103271 41.38455322 -2.36206543 40.76910645 -2.54858398 40.13500977 C-3.04638831 37.78060263 -3.05269467 35.7623428 -2.94921875 33.359375 C-2.91111084 32.46041504 -2.87300293 31.56145508 -2.83374023 30.63525391 C-2.78548096 29.68312012 -2.73722168 28.73098633 -2.6875 27.75 C-2.61801147 26.28892822 -2.61801147 26.28892822 -2.54711914 24.79833984 C-2.10919785 16.46485489 -1.21806655 8.25447039 0 0 Z " fill="#F4CF8F" transform="translate(218,308)"/>
<path d="M0 0 C0.42410156 1.19496094 0.84820312 2.38992188 1.28515625 3.62109375 C4.48426864 12.38824651 7.43726213 20.15705534 14 27 C14.54269531 27.61875 15.08539063 28.2375 15.64453125 28.875 C23.97239484 37.92448174 35.62655215 43.75177982 47.9296875 44.3125 C65.57027046 44.66615524 80.06493375 40.62413092 93.1875 28.25 C100.97716077 20.05849165 104.56273734 10.55513402 108 0 C112.38507941 0.52026366 116.67498095 1.09863876 121 2 C118.25290074 20.53266965 108.20889906 35.67981367 93.375 47.00390625 C77.92062921 57.40415869 59.41548289 61.51698908 41.0625 58.3125 C28.90522885 55.3230071 18.3993442 50.28851262 9 42 C8.24976563 41.34386719 7.49953125 40.68773437 6.7265625 40.01171875 C-3.22035782 30.72679484 -9.46395203 19.03917689 -13 6 C-13 4.68 -13 3.36 -13 2 C-8.47580359 0.77309928 -4.70776045 -0.13191623 0 0 Z " fill="#97D797" transform="translate(202,350)"/>
<path d="M0 0 C1.70336914 1.2265625 1.70336914 1.2265625 3 3 C4.46078844 12.38697321 2.25542394 22.62511797 1.0625 32 C0.78610223 34.21409417 0.51183939 36.4284279 0.23983765 38.64306641 C0.0631174 40.07798235 -0.11634321 41.51256371 -0.29867554 42.94677734 C-0.94674229 48.15387667 -1.30366154 53.33836664 -1.46313477 58.58203125 C-2.17315594 61.77987106 -3.45001962 62.99862667 -6 65 C-9.5 65.5625 -9.5 65.5625 -13 65 C-15.80757243 62.32354201 -16.93657631 60.82255448 -17.23779297 56.91601562 C-17.11549316 55.75779297 -16.99319336 54.59957031 -16.8671875 53.40625 C-16.80546356 52.7611145 -16.74373962 52.115979 -16.68014526 51.45129395 C-16.54342642 50.04455582 -16.39700024 48.63873525 -16.24206543 47.23388672 C-15.99296427 44.93507122 -15.77989271 42.6352041 -15.57519531 40.33203125 C-15.20633496 36.22398021 -14.80141866 32.12058639 -14.38037109 28.01757812 C-14.20872137 26.32536784 -14.04213409 24.63263711 -13.88037109 22.93945312 C-13.64220163 20.44798099 -13.38917478 17.9584082 -13.1328125 15.46875 C-13.06393829 14.7207312 -12.99506409 13.9727124 -12.92410278 13.20202637 C-12.39567754 8.29320659 -11.25922354 4.40914127 -9 0 C-5.85000502 -1.57499749 -3.36459118 -0.70833498 0 0 Z " fill="#010201" transform="translate(73,429)"/>
<path d="M0 0 C1.48073112 0.6631846 2.95964838 1.33042322 4.4375 2 C16.38366854 6.59468021 31.95761928 5.63605747 43.68359375 0.83984375 C47.28646797 -0.46642599 49.3922203 -0.22818032 53 1 C55 2.6875 55 2.6875 56 5 C56.0625 8 56.0625 8 55 11 C42.56387584 20.55502795 25.92443167 20.08073471 11 19 C3.94081505 18.07115988 -3.82052903 16.235617 -9 11 C-10.25 7.4375 -10.25 7.4375 -10 4 C-7.27869178 -0.24524082 -4.83955301 -0.70393498 0 0 Z " fill="#050403" transform="translate(233,245)"/>
<path d="M0 0 C2.72192497 1.43725514 4.94898035 2.99645443 7.16015625 5.140625 C8.08828125 6.0378125 8.08828125 6.0378125 9.03515625 6.953125 C10.76243668 10.31172583 10.1325124 12.57531912 9.16015625 16.140625 C7.12811655 18.39038324 5.76877363 18.99258294 2.84765625 19.703125 C-0.76188387 18.94763986 -2.56731778 17.06206954 -5.19140625 14.55078125 C-7.7127363 12.39390886 -9.88711337 12.1361656 -13.15234375 11.828125 C-18.28375741 12.26299056 -21.09919849 14.56316524 -24.83984375 17.953125 C-26.83984375 19.140625 -26.83984375 19.140625 -29.90234375 19.078125 C-32.83984375 18.140625 -32.83984375 18.140625 -34.71484375 16.390625 C-36.12517399 13.56996452 -36.43374405 12.25860157 -35.83984375 9.140625 C-28.23182938 -3.62997055 -12.64583751 -5.69162893 0 0 Z " fill="#060604" transform="translate(229.83984375,180.859375)"/>
<path d="M0 0 C3.34495298 2.25767013 5.74223717 4.61335576 8 8 C7.78087649 14.13545817 7.78087649 14.13545817 5.25 16.9375 C2.37049631 18.29726563 1.15379512 18.66009665 -2 18 C-3.91423548 16.58016971 -5.63003167 15.05768463 -7.3515625 13.41015625 C-9.87289255 11.25328386 -12.04726962 10.9955406 -15.3125 10.6875 C-20.44391366 11.12236556 -23.25935474 13.42254024 -27 16.8125 C-29 18 -29 18 -32.0625 17.9375 C-35 17 -35 17 -36.875 15.25 C-38.27330399 12.45339201 -38.60213919 11.08596334 -38 8 C-35.8125 5.4375 -35.8125 5.4375 -33 3 C-32.21625 2.29875 -31.4325 1.5975 -30.625 0.875 C-20.8677923 -6.09443407 -10.39214051 -5.6419677 0 0 Z " fill="#060504" transform="translate(310,182)"/>
<path d="M0 0 C4.43680469 0.0637243 6.9420553 1.34329872 10.3125 4.3125 C13.20330083 10.0741651 13.13079665 16.02184448 12.3125 22.3125 C9.9861895 28.6499856 6.27909532 33.29363263 0.34765625 36.55078125 C-2.83105795 37.74051113 -5.32903057 37.66234057 -8.6875 37.3125 C-8.05828697 29.05407897 -7.21663841 20.84282301 -6.1875 12.625 C-6.05730469 11.54283203 -5.92710937 10.46066406 -5.79296875 9.34570312 C-5.66535156 8.32025391 -5.53773438 7.29480469 -5.40625 6.23828125 C-5.23512695 4.85249878 -5.23512695 4.85249878 -5.06054688 3.4387207 C-4.42372597 -0.19090837 -3.93400988 0.33339067 0 0 Z " fill="#F0CC8D" transform="translate(366.6875,182.6875)"/>
<path d="M0 0 C0.66 0.33 1.32 0.66 2 1 C2.59423828 3.98754883 2.59423828 3.98754883 3.0703125 7.95703125 C3.15626678 8.65640305 3.24222107 9.35577484 3.33078003 10.07633972 C3.51142665 11.55957345 3.68766155 13.04335002 3.85986328 14.52758789 C4.12281395 16.79366088 4.39801658 19.05796551 4.67578125 21.32226562 C4.84967971 22.76293394 5.02287939 24.20368681 5.1953125 25.64453125 C5.27653351 26.32070999 5.35775452 26.99688873 5.44143677 27.69355774 C5.80438447 30.83431382 6 33.83015545 6 37 C-0.58711764 36.83569548 -5.31837866 35.83264138 -10 31 C-14.86104004 25.09291337 -15.68058665 19.49527731 -15.35546875 11.96484375 C-14.76789877 7.06412272 -13.53265335 4.27721112 -9.75 1.125 C-6.32298013 -0.27696267 -3.67072569 -0.2770359 0 0 Z " fill="#F1CD8E" transform="translate(148,183)"/>
<path d="M0 0 C2.32110046 2.6205973 2.98117079 4.19034399 3.0625 7.6875 C1.76517807 11.73209191 -0.25036678 14.94911855 -2.51171875 18.52734375 C-3.79843644 20.66511882 -4.78327405 22.68382765 -5.6875 25 C-7 28 -7 28 -10 30 C-13.96833798 29.92913682 -16.16643766 29.80830287 -19.0625 27 C-21.20584465 20.14129713 -17.79510053 14.23140104 -14.6875 8.125 C-11.28998725 1.66590834 -7.65323976 -2.66199644 0 0 Z " fill="#020302" transform="translate(86,377)"/>
</svg>
