<svg width="80" height="80" viewBox="0 0 80 80" fill="none" xmlns="http://www.w3.org/2000/svg">
<path d="M37.25 75H42.575C43.175 75 43.625 74.425 43.475 73.875L38.75 54H31.25L36.025 74.05C36.175 74.6 36.675 75 37.25 75ZM51.95 75H46.625C46.025 75 45.575 74.425 45.725 73.875L50.45 54H57.95L53.175 74.05C53.025 74.6 52.525 75 51.95 75Z" fill="#D3883E"/>
<path d="M53.525 7.94992C54.85 7.64992 56.25 7.47492 57.675 7.49992C67.125 7.59992 74.875 15.2999 75 24.7499C75.0356 27.2872 74.5189 29.8018 73.4859 32.1196C72.4529 34.4373 70.9282 36.5026 69.0175 38.1724C69.6525 39.9124 70 41.7899 70 43.7499V55.0999C70 56.6749 69.675 58.2499 69.025 59.6999L62.725 74.4249C62.6 74.7749 62.25 74.9999 61.875 74.9999H56.425C55.75 74.9999 55.3 74.2999 55.6 73.6999L58.85 66.1249C59.15 65.4499 59 64.6749 58.475 64.1499L52.45 58.1249C52.05 57.7249 41.7025 51.7749 41.1275 51.7749L32.525 57.4999V74.0499C32.525 74.5749 32.1 74.9999 31.575 74.9999H25.95C25.425 74.9999 25 74.5749 25 74.0749V57.4499L20.065 47.5049L15.05 42.4999C12.3846 42.4999 9.82832 41.4411 7.94358 39.5563C6.05884 37.6716 5 35.1153 5 32.4499V31.8999C5 30.8499 5.85 29.9999 6.9 29.9999C7.525 29.9999 8.075 29.5499 8.2 28.9249C9.15 24.0499 12.825 19.3249 17.5 18.2499V11.4749C17.5 10.5249 18.675 10.0999 19.3 10.7999L27.575 20.0149L26.92 22.4649L31.3475 24.9849C31.7242 25.7816 32.0108 26.6199 32.2075 27.4999L30.5925 29.9899L32.525 32.5274V33.5499C32.525 34.6749 33.7 35.4249 34.725 34.9249L35.025 34.7799L37.6875 35.7649L39.9725 32.3724L42.5475 31.1224L44.9825 31.9024L47.42 28.7749C48.2483 28.4249 49.1008 28.1466 49.9775 27.9399L52.37 30.9049L54.875 27.5374C57.1292 27.6939 59.3259 28.3187 61.325 29.3721C63.3241 30.4254 65.0815 31.8841 66.485 33.6549C68.5784 31.4865 69.8178 28.6348 69.975 25.6249C70.35 18.4499 64.6 12.4999 57.5 12.4999C56.55 12.4999 55.6 12.5999 54.7 12.8249C53.675 13.0499 52.625 12.6249 52.05 11.7499C52.0483 11.7383 52.0442 11.7299 52.0375 11.7249C52.0292 11.7199 52.025 11.7116 52.025 11.6999C51.8043 11.3692 51.6675 10.9897 51.6262 10.5943C51.585 10.1989 51.6406 9.79936 51.7882 9.43021C51.9359 9.06107 52.1712 8.73341 52.4737 8.47551C52.7763 8.21761 53.1371 8.03723 53.525 7.94992Z" fill="#F3AD61"/>
<path d="M29.4 22.075L27.55 20H25C23.625 20 22.5 21.125 22.5 22.5C22.5 23.875 23.625 25 25 25H31.3675C30.8675 23.925 30.175 22.95 29.4 22.075ZM49.925 27.95C51.175 27.65 52.45 27.5 53.75 27.5C54.125 27.5 54.525 27.525 54.925 27.55V35.95C54.925 37.325 53.8 38.45 52.425 38.45C51.05 38.45 49.925 37.325 49.925 35.95V27.95ZM46.625 29.125L42.45 31.15V38.025C42.45 39.4 43.575 40.525 44.95 40.525C46.325 40.525 47.45 39.4 47.45 38.025V28.775C47.175 28.875 46.9 29 46.625 29.125ZM37.5 42.6C38.875 42.6 40 41.475 40 40.1V32.35L35 34.775V40.1C35 41.475 36.125 42.6 37.5 42.6ZM32.2 27.5C32.4 28.375 32.5 29.275 32.5 30.225V32.5H28.75C27.375 32.5 26.25 31.375 26.25 30C26.25 28.625 27.375 27.5 28.75 27.5H32.2Z" fill="#D3883E"/>
<path d="M21.8125 44.7575C21.4885 44.0811 20.9796 43.5101 20.3448 43.1107C19.71 42.7112 18.9751 42.4995 18.225 42.5H15.05V46.475C15.0494 49.2133 16.0679 51.8539 17.9071 53.8826C19.7464 55.9113 22.2748 57.183 25 57.45V50.225L21.8125 44.7575ZM41.6 50.375H32.5V57.5H50.9001C51.4751 57.5 52.025 57.725 52.425 58.125L48.675 53.675C46.925 51.575 44.325 50.375 41.6 50.375Z" fill="#FFDEA7"/>
<path d="M15.05 28.9673C15.05 28.1673 15.6075 27.5498 16.275 27.5498C16.965 27.5498 17.5 28.1948 17.5 28.9673V31.0823C17.5 31.8573 16.965 32.4748 16.275 32.4998C15.585 32.4998 15.05 31.8548 15.05 31.0823V28.9673ZM8.6 29.9998C9.2 29.9998 9.525 30.6748 9.175 31.1498L5.625 35.9248C5.225 34.8498 5 33.6748 5 32.4498V31.8998C5 30.8498 5.85 29.9998 6.9 29.9998H8.6Z" fill="#212121"/>
</svg>
