<svg width="120" height="120" viewBox="0 0 120 120" fill="none" xmlns="http://www.w3.org/2000/svg">
<path d="M55.875 112.5H63.8625C64.7625 112.5 65.4375 111.637 65.2125 110.812L58.125 81H46.875L54.0375 111.075C54.2625 111.9 55.0125 112.5 55.875 112.5ZM77.925 112.5H69.9375C69.0375 112.5 68.3625 111.637 68.5875 110.812L75.675 81H86.925L79.7625 111.075C79.5375 111.9 78.7875 112.5 77.925 112.5Z" fill="#D3883E"/>
<path d="M80.2875 11.925C82.275 11.475 84.375 11.2125 86.5125 11.25C100.688 11.4 112.312 22.95 112.5 37.125C112.553 40.9309 111.778 44.7029 110.229 48.1795C108.679 51.656 106.392 54.7541 103.526 57.2588C104.479 59.8688 105 62.685 105 65.625V82.65C105 85.0125 104.513 87.375 103.538 89.55L94.0875 111.638C93.9 112.162 93.375 112.5 92.8125 112.5H84.6375C83.625 112.5 82.95 111.45 83.4 110.55L88.275 99.1875C88.725 98.175 88.5 97.0125 87.7125 96.225L78.675 87.1875C78.075 86.5875 62.5537 77.6625 61.6912 77.6625L48.7875 86.25V111.075C48.7875 111.863 48.15 112.5 47.3625 112.5H38.925C38.1375 112.5 37.5 111.862 37.5 111.112V86.175L30.0975 71.2575L22.575 63.75C18.5769 63.75 14.7425 62.1617 11.9154 59.3346C9.08825 56.5075 7.5 52.6731 7.5 48.675V47.85C7.5 46.275 8.775 45 10.35 45C11.2875 45 12.1125 44.325 12.3 43.3875C13.725 36.075 19.2375 28.9875 26.25 27.375V17.2125C26.25 15.7875 28.0125 15.15 28.95 16.2L41.3625 30.0225L40.38 33.6975L47.0212 37.4775C47.5862 38.6725 48.0163 39.93 48.3113 41.25L45.8888 44.985L48.7875 48.7913V50.325C48.7875 52.0125 50.55 53.1375 52.0875 52.3875L52.5375 52.17L56.5312 53.6475L59.9588 48.5588L63.8212 46.6838L67.4738 47.8538L71.13 43.1625C72.3725 42.6375 73.6512 42.22 74.9662 41.91L78.555 46.3575L82.3125 41.3063C85.6938 41.5409 88.9889 42.4782 91.9875 44.0582C94.9861 45.6382 97.6222 47.8262 99.7275 50.4825C102.868 47.2299 104.727 42.9523 104.963 38.4375C105.525 27.675 96.9 18.75 86.25 18.75C84.825 18.75 83.4 18.9 82.05 19.2375C80.5125 19.575 78.9375 18.9375 78.075 17.625C78.0725 17.6075 78.0663 17.595 78.0563 17.5875C78.0438 17.58 78.0375 17.5675 78.0375 17.55C77.7065 17.0539 77.5012 16.4847 77.4393 15.8916C77.3775 15.2985 77.4609 14.6992 77.6823 14.1454C77.9038 13.5917 78.2567 13.1002 78.7106 12.7134C79.1645 12.3265 79.7057 12.056 80.2875 11.925Z" fill="#F3AD61"/>
<path d="M44.1 33.1125L41.325 30H37.5C35.4375 30 33.75 31.6875 33.75 33.75C33.75 35.8125 35.4375 37.5 37.5 37.5H47.0512C46.3012 35.8875 45.2625 34.425 44.1 33.1125ZM74.8875 41.925C76.7625 41.475 78.675 41.25 80.625 41.25C81.1875 41.25 81.7875 41.2875 82.3875 41.325V53.925C82.3875 55.9875 80.7 57.675 78.6375 57.675C76.575 57.675 74.8875 55.9875 74.8875 53.925V41.925ZM69.9375 43.6875L63.675 46.725V57.0375C63.675 59.1 65.3625 60.7875 67.425 60.7875C69.4875 60.7875 71.175 59.1 71.175 57.0375V43.1625C70.7625 43.3125 70.35 43.5 69.9375 43.6875ZM56.25 63.9C58.3125 63.9 60 62.2125 60 60.15V48.525L52.5 52.1625V60.15C52.5 62.2125 54.1875 63.9 56.25 63.9ZM48.3 41.25C48.6 42.5625 48.75 43.9125 48.75 45.3375V48.75H43.125C41.0625 48.75 39.375 47.0625 39.375 45C39.375 42.9375 41.0625 41.25 43.125 41.25H48.3Z" fill="#D3883E"/>
<path d="M32.7189 67.1363C32.2328 66.1216 31.4696 65.2652 30.5173 64.666C29.5651 64.0668 28.4628 63.7492 27.3377 63.75H22.5752V69.7125C22.5743 73.82 24.1019 77.7809 26.8608 80.8239C29.6197 83.867 33.4123 85.7745 37.5002 86.175V75.3375L32.7189 67.1363ZM62.4002 75.5625H48.7502V86.25H76.3502C77.2127 86.25 78.0377 86.5875 78.6377 87.1875L73.0127 80.5125C70.3877 77.3625 66.4877 75.5625 62.4002 75.5625Z" fill="#FFDEA7"/>
<path d="M22.575 43.4513C22.575 42.2513 23.4113 41.325 24.4125 41.325C25.4475 41.325 26.25 42.2925 26.25 43.4513V46.6238C26.25 47.7863 25.4475 48.7125 24.4125 48.75C23.3775 48.75 22.575 47.7825 22.575 46.6238V43.4513ZM12.9 45C13.8 45 14.2875 46.0125 13.7625 46.725L8.4375 53.8875C7.8375 52.275 7.5 50.5125 7.5 48.675V47.85C7.5 46.275 8.775 45 10.35 45H12.9Z" fill="#212121"/>
</svg>
