<svg width="196" height="120" viewBox="0 0 196 120" fill="none" xmlns="http://www.w3.org/2000/svg">
<path d="M105.938 60C107.475 60 108.75 58.725 108.75 57.1875V56.325C108.75 54.6 107.363 53.25 105.675 53.25H103.125V57.1875C103.125 58.725 104.4 60 105.938 60Z" fill="#F8312F"/>
<path d="M61.7251 78.75H72.9751L67.5001 111.525C67.3876 112.087 66.9001 112.5 66.3376 112.5H57.1876C56.6251 112.5 56.1751 111.975 56.2501 111.412L61.7251 78.75ZM45.1876 78.75H33.9376L41.3251 111.6C41.4376 112.125 41.8876 112.5 42.4501 112.5H51.6001C51.7398 112.504 51.8787 112.476 52.0057 112.418C52.1327 112.359 52.2442 112.272 52.3316 112.163C52.4189 112.054 52.4796 111.925 52.5089 111.789C52.5381 111.652 52.5351 111.51 52.5001 111.375L45.1876 78.75Z" fill="#D3883E"/>
<path d="M48.5625 36.45C47.8437 31.4577 45.3223 26.9011 41.4743 23.6403C37.6262 20.3794 32.7176 18.6399 27.675 18.75C16.7625 18.975 7.8 27.8625 7.5 38.775C7.38432 42.7304 8.40891 46.6355 10.4515 50.0246C12.4942 53.4137 15.4686 56.1436 19.02 57.8888C18.8425 58.8413 18.7525 59.82 18.75 60.825V80.625C18.75 81.0375 18.525 81.4125 18.225 81.6L13.8375 84.525C12.225 85.6125 11.25 87.45 11.2125 89.4V111.338C11.2125 111.975 11.7375 112.5 12.375 112.5H21.3C21.9375 112.5 22.4625 111.975 22.4625 111.338V98.2875C22.4625 97.8 22.7625 97.3875 23.2125 97.2L32.4 93.525C34.9751 92.4978 37.1891 90.7323 38.7637 88.4504C40.3384 86.1685 41.2034 83.4721 41.25 80.7L56.85 78.75L75 82.5V86.8875C75 92.775 79.725 97.5 85.6125 97.5H90V98.925C90 100.2 91.05 101.25 92.325 101.25H98.8875C100.2 101.25 101.25 100.2 101.25 98.925V96.4125C101.25 90.7875 96.7125 86.25 91.125 86.25H86.25V82.3875C91.05 77.6625 93.75 71.2125 93.75 64.4625V57.4125C93.75 56.775 94.275 56.25 94.9125 56.25H101.25C107.475 56.25 112.5 51.225 112.5 45V44.1C112.5 42.525 111.225 41.25 109.65 41.25H103.988C102.375 41.25 100.95 40.1625 100.575 38.5875L100.238 37.2375C99.4522 34.1014 97.6423 31.3173 95.0947 29.3268C92.5472 27.3363 89.4079 26.2535 86.175 26.25H78.9C76.725 26.25 74.7375 27.6 73.95 29.625L69.2625 41.325L69.0112 41.97C68.07 44.4263 66.3825 48.8363 61.35 48.1875L35.775 45.0375C33.179 44.8324 30.5726 45.2741 28.1892 46.3231C25.8057 47.3722 23.7196 48.9958 22.1175 51.0488C19.8647 49.8884 17.9947 48.1024 16.7322 45.9053C15.4696 43.7081 14.8682 41.1932 15 38.6625C15.375 31.95 20.8125 26.55 27.4875 26.25C32.85 25.9875 37.5375 28.95 39.7875 33.375C41.1 35.925 43.8 37.5 46.65 37.5H47.625C47.7582 37.501 47.89 37.4736 48.0118 37.4196C48.1335 37.3656 48.2424 37.2863 48.3311 37.187C48.4198 37.0876 48.4863 36.9705 48.5262 36.8434C48.5661 36.7164 48.5785 36.5823 48.5625 36.45Z" fill="#F3AD61"/>
<path d="M75 82.5V75.0375L46.9875 75C43.8 75 41.25 77.5762 41.25 80.7075C43.7839 81.8975 46.5506 82.5098 49.35 82.5H75Z" fill="#FFDEA7"/>
<path d="M93.75 42.5251C93.75 43.5376 92.925 44.4001 91.875 44.4001C90.825 44.4001 90 43.5376 90 42.5251V40.3876C90 39.3376 90.825 38.5126 91.875 38.5126C92.925 38.5126 93.75 39.3376 93.75 40.3876V42.5251ZM109.688 46.8751H107.812C106.275 46.8751 105 45.6001 105 44.0626C105 42.5251 106.275 41.2501 107.812 41.2501H109.688C111.225 41.2501 112.5 42.5251 112.5 44.0626C112.5 45.6001 111.225 46.8751 109.688 46.8751Z" fill="#212121"/>
<path d="M86.25 26.25H72.9C70.1625 26.25 68.1375 28.8375 68.8125 31.5L71.0625 40.4625C71.7 43.125 74.1 45 76.875 45C79.6125 45 82.0125 43.125 82.6875 40.4625L86.25 26.25Z" fill="#D3883E"/>
<path d="M188.969 86C189.737 86 190.375 85.3625 190.375 84.5938V84.1625C190.375 83.3 189.681 82.625 188.838 82.625H187.562V84.5938C187.562 85.3625 188.2 86 188.969 86Z" fill="#F8312F"/>
<path d="M166.863 95.375H172.488L169.75 111.762C169.694 112.044 169.45 112.25 169.169 112.25H164.594C164.313 112.25 164.088 111.987 164.125 111.706L166.863 95.375ZM158.594 95.375H152.969L156.663 111.8C156.719 112.063 156.944 112.25 157.225 112.25H161.8C161.87 112.252 161.939 112.238 162.003 112.209C162.066 112.18 162.122 112.136 162.166 112.081C162.209 112.027 162.24 111.963 162.254 111.894C162.269 111.826 162.268 111.755 162.25 111.688L158.594 95.375Z" fill="#D3883E"/>
<path d="M160.281 74.225C159.922 71.7288 158.661 69.4505 156.737 67.8201C154.813 66.1897 152.359 65.32 149.837 65.375C144.381 65.4875 139.9 69.9313 139.75 75.3875C139.692 77.3652 140.204 79.3178 141.226 81.0123C142.247 82.7068 143.734 84.0718 145.51 84.9444C145.421 85.4206 145.376 85.91 145.375 86.4125V96.3125C145.375 96.5188 145.263 96.7063 145.113 96.8L142.919 98.2625C142.113 98.8063 141.625 99.725 141.606 100.7V111.669C141.606 111.988 141.869 112.25 142.187 112.25H146.65C146.969 112.25 147.231 111.988 147.231 111.669V105.144C147.231 104.9 147.381 104.694 147.606 104.6L152.2 102.763C153.488 102.249 154.595 101.366 155.382 100.225C156.169 99.0843 156.602 97.736 156.625 96.35L164.425 95.375L173.5 97.25V99.4438C173.5 102.388 175.862 104.75 178.806 104.75H181V105.463C181 106.1 181.525 106.625 182.162 106.625H185.444C186.1 106.625 186.625 106.1 186.625 105.463V104.206C186.625 101.394 184.356 99.125 181.563 99.125H179.125V97.1938C181.525 94.8313 182.875 91.6063 182.875 88.2313V84.7063C182.875 84.3875 183.137 84.125 183.456 84.125H186.625C189.737 84.125 192.25 81.6125 192.25 78.5V78.05C192.25 77.2625 191.612 76.625 190.825 76.625H187.994C187.188 76.625 186.475 76.0813 186.288 75.2938L186.119 74.6188C185.726 73.0507 184.821 71.6586 183.547 70.6634C182.274 69.6682 180.704 69.1267 179.087 69.125H175.45C174.362 69.125 173.369 69.8 172.975 70.8125L170.631 76.6625L170.506 76.985C170.035 78.2131 169.191 80.4181 166.675 80.0938L153.888 78.5188C152.59 78.4162 151.286 78.637 150.095 79.1616C148.903 79.6861 147.86 80.4979 147.059 81.5244C145.932 80.9442 144.997 80.0512 144.366 78.9526C143.735 77.854 143.434 76.5966 143.5 75.3313C143.688 71.975 146.406 69.275 149.744 69.125C152.425 68.9938 154.769 70.475 155.894 72.6875C156.55 73.9625 157.9 74.75 159.325 74.75H159.813C159.879 74.7505 159.945 74.7368 160.006 74.7098C160.067 74.6828 160.121 74.6432 160.166 74.5935C160.21 74.5438 160.243 74.4853 160.263 74.4217C160.283 74.3582 160.289 74.2911 160.281 74.225Z" fill="#F3AD61"/>
<path d="M173.5 97.25V93.5188L159.494 93.5C157.9 93.5 156.625 94.7881 156.625 96.3537C157.892 96.9488 159.275 97.2549 160.675 97.25H173.5Z" fill="#FFDEA7"/>
<path d="M182.875 77.2625C182.875 77.7687 182.463 78.2 181.938 78.2C181.412 78.2 181 77.7687 181 77.2625V76.1937C181 75.6687 181.412 75.2562 181.938 75.2562C182.463 75.2562 182.875 75.6687 182.875 76.1937V77.2625ZM190.844 79.4375H189.906C189.138 79.4375 188.5 78.8 188.5 78.0312C188.5 77.2625 189.138 76.625 189.906 76.625H190.844C191.612 76.625 192.25 77.2625 192.25 78.0312C192.25 78.8 191.612 79.4375 190.844 79.4375Z" fill="#212121"/>
<path d="M179.125 69.125H172.45C171.081 69.125 170.069 70.4187 170.406 71.75L171.531 76.2312C171.85 77.5625 173.05 78.5 174.437 78.5C175.806 78.5 177.006 77.5625 177.344 76.2312L179.125 69.125Z" fill="#D3883E"/>
</svg>
