<svg width="136" height="80" viewBox="0 0 136 80" fill="none" xmlns="http://www.w3.org/2000/svg">
<path d="M70.625 40C71.65 40 72.5 39.15 72.5 38.125V37.55C72.5 36.4 71.575 35.5 70.45 35.5H68.75V38.125C68.75 39.15 69.6 40 70.625 40Z" fill="#F8312F"/>
<path d="M41.15 52.5H48.65L45 74.35C44.925 74.725 44.6 75 44.225 75H38.125C37.75 75 37.45 74.65 37.5 74.275L41.15 52.5ZM30.125 52.5H22.625L27.55 74.4C27.625 74.75 27.925 75 28.3 75H34.4C34.4932 75.003 34.5858 74.9842 34.6704 74.9452C34.7551 74.9061 34.8294 74.8479 34.8877 74.7751C34.9459 74.7023 34.9864 74.617 35.0059 74.5258C35.0254 74.4347 35.0234 74.3402 35 74.25L30.125 52.5Z" fill="#D3883E"/>
<path d="M32.375 24.3001C31.8958 20.9719 30.2149 17.9341 27.6495 15.7603C25.0841 13.5864 21.8118 12.4267 18.45 12.5001C11.175 12.6501 5.2 18.5751 5 25.8501C4.92288 28.487 5.60594 31.0904 6.96769 33.3498C8.32944 35.6092 10.3124 37.4292 12.68 38.5926C12.5617 39.2276 12.5017 39.8801 12.5 40.5501V53.7501C12.5 54.0251 12.35 54.2751 12.15 54.4001L9.225 56.3501C8.15 57.0751 7.5 58.3001 7.475 59.6001V74.2251C7.475 74.6501 7.825 75.0001 8.25 75.0001H14.2C14.625 75.0001 14.975 74.6501 14.975 74.2251V65.5251C14.975 65.2001 15.175 64.9251 15.475 64.8001L21.6 62.3501C23.3167 61.6653 24.7927 60.4883 25.8425 58.967C26.8922 57.4458 27.4689 55.6481 27.5 53.8001L37.9 52.5001L50 55.0001V57.9251C50 61.8501 53.15 65.0001 57.075 65.0001H60V65.9501C60 66.8001 60.7 67.5001 61.55 67.5001H65.925C66.8 67.5001 67.5 66.8001 67.5 65.9501V64.2751C67.5 60.5251 64.475 57.5001 60.75 57.5001H57.5V54.9251C60.7 51.7751 62.5 47.4751 62.5 42.9751V38.2751C62.5 37.8501 62.85 37.5001 63.275 37.5001H67.5C71.65 37.5001 75 34.1501 75 30.0001V29.4001C75 28.3501 74.15 27.5001 73.1 27.5001H69.325C68.25 27.5001 67.3 26.7751 67.05 25.7251L66.825 24.8251C66.3015 22.7344 65.0948 20.8783 63.3965 19.5513C61.6981 18.2243 59.6053 17.5024 57.45 17.5001H52.6C51.15 17.5001 49.825 18.4001 49.3 19.7501L46.175 27.5501L46.0075 27.9801C45.38 29.6176 44.255 32.5576 40.9 32.1251L23.85 30.0251C22.1193 29.8883 20.3818 30.1828 18.7928 30.8822C17.2038 31.5815 15.8131 32.664 14.745 34.0326C13.2431 33.259 11.9965 32.0684 11.1548 30.6036C10.3131 29.1388 9.91211 27.4622 10 25.7751C10.25 21.3001 13.875 17.7001 18.325 17.5001C21.9 17.3251 25.025 19.3001 26.525 22.2501C27.4 23.9501 29.2 25.0001 31.1 25.0001H31.75C31.8388 25.0008 31.9267 24.9825 32.0079 24.9465C32.089 24.9105 32.1616 24.8576 32.2207 24.7914C32.2799 24.7252 32.3242 24.6471 32.3508 24.5624C32.3774 24.4777 32.3857 24.3883 32.375 24.3001Z" fill="#F3AD61"/>
<path d="M50 55V50.025L31.325 50C29.2 50 27.5 51.7175 27.5 53.805C29.1893 54.5983 31.0337 55.0065 32.9 55H50Z" fill="#FFDEA7"/>
<path d="M62.5 28.35C62.5 29.025 61.95 29.6 61.25 29.6C60.55 29.6 60 29.025 60 28.35V26.925C60 26.225 60.55 25.675 61.25 25.675C61.95 25.675 62.5 26.225 62.5 26.925V28.35ZM73.125 31.25H71.875C70.85 31.25 70 30.4 70 29.375C70 28.35 70.85 27.5 71.875 27.5H73.125C74.15 27.5 75 28.35 75 29.375C75 30.4 74.15 31.25 73.125 31.25Z" fill="#212121"/>
<path d="M57.5 17.5H48.6C46.775 17.5 45.425 19.225 45.875 21L47.375 26.975C47.8 28.75 49.4 30 51.25 30C53.075 30 54.675 28.75 55.125 26.975L57.5 17.5Z" fill="#D3883E"/>
<path d="M131.312 58C131.825 58 132.25 57.575 132.25 57.0625V56.775C132.25 56.2 131.788 55.75 131.225 55.75H130.375V57.0625C130.375 57.575 130.8 58 131.312 58Z" fill="#F8312F"/>
<path d="M116.575 64.25H120.325L118.5 75.175C118.462 75.3625 118.3 75.5 118.112 75.5H115.062C114.875 75.5 114.725 75.325 114.75 75.1375L116.575 64.25ZM111.062 64.25H107.312L109.775 75.2C109.812 75.375 109.962 75.5 110.15 75.5H113.2C113.247 75.5015 113.293 75.4921 113.335 75.4726C113.377 75.4531 113.415 75.424 113.444 75.3876C113.473 75.3512 113.493 75.3085 113.503 75.2629C113.513 75.2173 113.512 75.1701 113.5 75.125L111.062 64.25Z" fill="#D3883E"/>
<path d="M112.188 50.1499C111.948 48.4858 111.107 46.9669 109.825 45.88C108.542 44.7931 106.906 44.2132 105.225 44.2499C101.588 44.3249 98.6 47.2874 98.5 50.9249C98.4614 52.2434 98.803 53.5451 99.4838 54.6748C100.165 55.8045 101.156 56.7145 102.34 57.2962C102.281 57.6137 102.251 57.9399 102.25 58.2749V64.8749C102.25 65.0124 102.175 65.1374 102.075 65.1999L100.613 66.1749C100.075 66.5374 99.75 67.1499 99.7375 67.7999V75.1124C99.7375 75.3249 99.9125 75.4999 100.125 75.4999H103.1C103.313 75.4999 103.488 75.3249 103.488 75.1124V70.7624C103.488 70.5999 103.588 70.4624 103.738 70.3999L106.8 69.1749C107.658 68.8325 108.396 68.244 108.921 67.4834C109.446 66.7228 109.734 65.824 109.75 64.8999L114.95 64.2499L121 65.4999V66.9624C121 68.9249 122.575 70.4999 124.538 70.4999H126V70.9749C126 71.3999 126.35 71.7499 126.775 71.7499H128.963C129.4 71.7499 129.75 71.3999 129.75 70.9749V70.1374C129.75 68.2624 128.238 66.7499 126.375 66.7499H124.75V65.4624C126.35 63.8874 127.25 61.7374 127.25 59.4874V57.1374C127.25 56.9249 127.425 56.7499 127.638 56.7499H129.75C131.825 56.7499 133.5 55.0749 133.5 52.9999V52.6999C133.5 52.1749 133.075 51.7499 132.55 51.7499H130.663C130.125 51.7499 129.65 51.3874 129.525 50.8624L129.413 50.4124C129.151 49.3671 128.547 48.439 127.698 47.7755C126.849 47.112 125.803 46.7511 124.725 46.7499H122.3C121.575 46.7499 120.913 47.1999 120.65 47.8749L119.088 51.7749L119.004 51.9899C118.69 52.8087 118.128 54.2787 116.45 54.0624L107.925 53.0124C107.06 52.944 106.191 53.0913 105.396 53.441C104.602 53.7906 103.907 54.3319 103.373 55.0162C102.622 54.6294 101.998 54.0341 101.577 53.3017C101.157 52.5693 100.956 51.731 101 50.8874C101.125 48.6499 102.938 46.8499 105.163 46.7499C106.95 46.6624 108.513 47.6499 109.263 49.1249C109.7 49.9749 110.6 50.4999 111.55 50.4999H111.875C111.919 50.5003 111.963 50.4911 112.004 50.4731C112.045 50.4551 112.081 50.4287 112.11 50.3956C112.14 50.3625 112.162 50.3234 112.175 50.2811C112.189 50.2387 112.193 50.194 112.188 50.1499Z" fill="#F3AD61"/>
<path d="M121 65.5V63.0125L111.663 63C110.6 63 109.75 63.8587 109.75 64.9025C110.595 65.2992 111.517 65.5033 112.45 65.5H121Z" fill="#FFDEA7"/>
<path d="M127.25 52.1749C127.25 52.5124 126.975 52.7999 126.625 52.7999C126.275 52.7999 126 52.5124 126 52.1749V51.4624C126 51.1124 126.275 50.8374 126.625 50.8374C126.975 50.8374 127.25 51.1124 127.25 51.4624V52.1749ZM132.562 53.6249H131.938C131.425 53.6249 131 53.1999 131 52.6874C131 52.1749 131.425 51.7499 131.938 51.7499H132.562C133.075 51.7499 133.5 52.1749 133.5 52.6874C133.5 53.1999 133.075 53.6249 132.562 53.6249Z" fill="#212121"/>
<path d="M124.75 46.75H120.3C119.387 46.75 118.712 47.6125 118.937 48.5L119.687 51.4875C119.9 52.375 120.7 53 121.625 53C122.537 53 123.338 52.375 123.563 51.4875L124.75 46.75Z" fill="#D3883E"/>
</svg>
