<svg width="116" height="60" viewBox="0 0 116 60" fill="none" xmlns="http://www.w3.org/2000/svg">
<path d="M52.9688 30C53.7375 30 54.375 29.3625 54.375 28.5938V28.1625C54.375 27.3 53.6813 26.625 52.8375 26.625H51.5625V28.5938C51.5625 29.3625 52.2 30 52.9688 30Z" fill="#F8312F"/>
<path d="M30.8625 39.375H36.4875L33.75 55.7625C33.6938 56.0437 33.45 56.25 33.1688 56.25H28.5938C28.3125 56.25 28.0875 55.9875 28.125 55.7062L30.8625 39.375ZM22.5938 39.375H16.9688L20.6626 55.8C20.7188 56.0625 20.9438 56.25 21.2251 56.25H25.8001C25.8699 56.2522 25.9394 56.2381 26.0028 56.2089C26.0663 56.1796 26.1221 56.1359 26.1658 56.0813C26.2095 56.0268 26.2398 55.9627 26.2544 55.8944C26.2691 55.826 26.2676 55.7552 26.2501 55.6875L22.5938 39.375Z" fill="#D3883E"/>
<path d="M24.2813 18.225C23.9218 15.7288 22.6612 13.4505 20.7371 11.8201C18.8131 10.1897 16.3588 9.31996 13.8375 9.37502C8.38125 9.48752 3.9 13.9313 3.75 19.3875C3.69216 21.3652 4.20445 23.3178 5.22577 25.0123C6.24708 26.7068 7.73429 28.0718 9.51 28.9444C9.42125 29.4206 9.37625 29.91 9.375 30.4125V40.3125C9.375 40.5188 9.2625 40.7063 9.1125 40.8L6.91875 42.2625C6.1125 42.8063 5.625 43.725 5.60625 44.7V55.6688C5.60625 55.9875 5.86875 56.25 6.1875 56.25H10.65C10.9688 56.25 11.2312 55.9875 11.2312 55.6688V49.1438C11.2312 48.9 11.3813 48.6938 11.6063 48.6L16.2 46.7625C17.4876 46.2489 18.5946 45.3661 19.3819 44.2252C20.1692 43.0843 20.6017 41.736 20.625 40.35L28.425 39.375L37.5 41.25V43.4438C37.5 46.3875 39.8625 48.75 42.8062 48.75H45V49.4625C45 50.1 45.525 50.625 46.1625 50.625H49.4437C50.1 50.625 50.625 50.1 50.625 49.4625V48.2063C50.625 45.3938 48.3563 43.125 45.5625 43.125H43.125V41.1938C45.525 38.8313 46.875 35.6063 46.875 32.2313V28.7063C46.875 28.3875 47.1375 28.125 47.4562 28.125H50.625C53.7375 28.125 56.25 25.6125 56.25 22.5V22.05C56.25 21.2625 55.6125 20.625 54.825 20.625H51.9938C51.1875 20.625 50.475 20.0813 50.2875 19.2938L50.1188 18.6188C49.7261 17.0507 48.8211 15.6586 47.5474 14.6634C46.2736 13.6682 44.704 13.1267 43.0875 13.125H39.45C38.3625 13.125 37.3688 13.8 36.975 14.8125L34.6313 20.6625L34.5056 20.985C34.035 22.2131 33.1912 24.4181 30.675 24.0938L17.8875 22.5188C16.5895 22.4162 15.2863 22.637 14.0946 23.1616C12.9029 23.6861 11.8598 24.4979 11.0588 25.5244C9.93235 24.9442 8.99737 24.0512 8.3661 22.9526C7.73482 21.854 7.43408 20.5966 7.5 19.3313C7.6875 15.975 10.4062 13.275 13.7437 13.125C16.425 12.9938 18.7688 14.475 19.8938 16.6875C20.55 17.9625 21.9 18.75 23.325 18.75H23.8125C23.8791 18.7505 23.945 18.7368 24.0059 18.7098C24.0668 18.6828 24.1212 18.6432 24.1655 18.5935C24.2099 18.5438 24.2432 18.4853 24.2631 18.4217C24.2831 18.3582 24.2892 18.2911 24.2813 18.225Z" fill="#F3AD61"/>
<path d="M37.5 41.25V37.5188L23.4938 37.5C21.9 37.5 20.625 38.7881 20.625 40.3537C21.892 40.9488 23.2753 41.2549 24.675 41.25H37.5Z" fill="#FFDEA7"/>
<path d="M46.875 21.2625C46.875 21.7687 46.4625 22.2 45.9375 22.2C45.4125 22.2 45 21.7687 45 21.2625V20.1937C45 19.6687 45.4125 19.2562 45.9375 19.2562C46.4625 19.2562 46.875 19.6687 46.875 20.1937V21.2625ZM54.8438 23.4375H53.9062C53.1375 23.4375 52.5 22.8 52.5 22.0312C52.5 21.2625 53.1375 20.625 53.9062 20.625H54.8438C55.6125 20.625 56.25 21.2625 56.25 22.0312C56.25 22.8 55.6125 23.4375 54.8438 23.4375Z" fill="#212121"/>
<path d="M43.125 13.125H36.45C35.0812 13.125 34.0688 14.4187 34.4063 15.75L35.5312 20.2312C35.85 21.5625 37.05 22.5 38.4375 22.5C39.8062 22.5 41.0063 21.5625 41.3438 20.2312L43.125 13.125Z" fill="#D3883E"/>
<path d="M111.312 39C111.825 39 112.25 38.575 112.25 38.0625V37.775C112.25 37.2 111.788 36.75 111.225 36.75H110.375V38.0625C110.375 38.575 110.8 39 111.312 39Z" fill="#F8312F"/>
<path d="M96.5752 45.25H100.325L98.5002 56.175C98.4627 56.3625 98.3002 56.5 98.1127 56.5H95.0627C94.8752 56.5 94.7252 56.325 94.7502 56.1375L96.5752 45.25ZM91.0627 45.25H87.3127L89.7752 56.2C89.8127 56.375 89.9627 56.5 90.1502 56.5H93.2002C93.2468 56.5015 93.2931 56.4921 93.3354 56.4726C93.3777 56.4531 93.4149 56.424 93.444 56.3876C93.4731 56.3512 93.4934 56.3085 93.5031 56.2629C93.5129 56.2173 93.5119 56.1701 93.5002 56.125L91.0627 45.25Z" fill="#D3883E"/>
<path d="M92.1875 31.1501C91.9479 29.4859 91.1074 27.9671 89.8248 26.8801C88.5421 25.7932 86.9059 25.2134 85.225 25.2501C81.5875 25.3251 78.6 28.2876 78.5 31.9251C78.4614 33.2435 78.803 34.5452 79.4838 35.6749C80.1647 36.8046 81.1562 37.7146 82.34 38.2963C82.2808 38.6138 82.2508 38.9401 82.25 39.2751V45.8751C82.25 46.0126 82.175 46.1376 82.075 46.2001L80.6125 47.1751C80.075 47.5376 79.75 48.1501 79.7375 48.8001V56.1126C79.7375 56.3251 79.9125 56.5001 80.125 56.5001H83.1C83.3125 56.5001 83.4875 56.3251 83.4875 56.1126V51.7626C83.4875 51.6001 83.5875 51.4626 83.7375 51.4001L86.8 50.1751C87.6584 49.8326 88.3964 49.2441 88.9212 48.4835C89.4461 47.7229 89.7345 46.8241 89.75 45.9001L94.95 45.2501L101 46.5001V47.9626C101 49.9251 102.575 51.5001 104.538 51.5001H106V51.9751C106 52.4001 106.35 52.7501 106.775 52.7501H108.963C109.4 52.7501 109.75 52.4001 109.75 51.9751V51.1376C109.75 49.2626 108.238 47.7501 106.375 47.7501H104.75V46.4626C106.35 44.8876 107.25 42.7376 107.25 40.4876V38.1376C107.25 37.9251 107.425 37.7501 107.638 37.7501H109.75C111.825 37.7501 113.5 36.0751 113.5 34.0001V33.7001C113.5 33.1751 113.075 32.7501 112.55 32.7501H110.663C110.125 32.7501 109.65 32.3876 109.525 31.8626L109.413 31.4126C109.151 30.3672 108.547 29.4391 107.698 28.7756C106.849 28.1121 105.803 27.7512 104.725 27.7501H102.3C101.575 27.7501 100.913 28.2001 100.65 28.8751L99.0875 32.7751L99.0038 32.9901C98.69 33.8088 98.1275 35.2788 96.45 35.0626L87.925 34.0126C87.0597 33.9442 86.1909 34.0914 85.3964 34.4411C84.6019 34.7908 83.9065 35.332 83.3725 36.0163C82.6216 35.6295 81.9983 35.0342 81.5774 34.3018C81.1565 33.5694 80.9561 32.7311 81 31.8876C81.125 29.6501 82.9375 27.8501 85.1625 27.7501C86.95 27.6626 88.5125 28.6501 89.2625 30.1251C89.7 30.9751 90.6 31.5001 91.55 31.5001H91.875C91.9194 31.5004 91.9633 31.4912 92.0039 31.4732C92.0445 31.4552 92.0808 31.4288 92.1104 31.3957C92.1399 31.3626 92.1621 31.3235 92.1754 31.2812C92.1887 31.2388 92.1928 31.1941 92.1875 31.1501Z" fill="#F3AD61"/>
<path d="M101 46.5V44.0125L91.6625 44C90.6 44 89.75 44.8587 89.75 45.9025C90.5946 46.2992 91.5169 46.5033 92.45 46.5H101Z" fill="#FFDEA7"/>
<path d="M107.25 33.175C107.25 33.5125 106.975 33.8 106.625 33.8C106.275 33.8 106 33.5125 106 33.175V32.4625C106 32.1125 106.275 31.8375 106.625 31.8375C106.975 31.8375 107.25 32.1125 107.25 32.4625V33.175ZM112.562 34.625H111.938C111.425 34.625 111 34.2 111 33.6875C111 33.175 111.425 32.75 111.938 32.75H112.562C113.075 32.75 113.5 33.175 113.5 33.6875C113.5 34.2 113.075 34.625 112.562 34.625Z" fill="#212121"/>
<path d="M104.75 27.75H100.3C99.3875 27.75 98.7125 28.6125 98.9375 29.5L99.6875 32.4875C99.9 33.375 100.7 34 101.625 34C102.537 34 103.338 33.375 103.563 32.4875L104.75 27.75Z" fill="#D3883E"/>
</svg>
